<svg id="Layer_1" data-name="Layer 1" xmlns="http://www.w3.org/2000/svg" viewBox="0 0 51.22 49.01"><defs><style>.cls-1{fill:#65bc46;}</style></defs><title>cd-logo</title><path class="cls-1" d="M364.66,68.38c0-.17.28,0.07,0.38,0A0.29,0.29,0,0,1,364.66,68.38ZM346.24,87.72c-0.14.56-.27,1.11-0.36,1.67C346,88.85,346.09,88.29,346.24,87.72ZM366,68.7c0.09,0.11.1-.13,0.18,0l0-.07C366,68.53,366,68.73,366,68.7Zm0,0a1.25,1.25,0,0,1-.14-0.31A0.71,0.71,0,0,0,366,68.7Zm25.47,13.64-0.08.13,0.26,0.25Zm0.94,2.87c-0.25-.13,0-0.8-0.31-0.69A0.57,0.57,0,0,0,392.37,85.21Zm-26.23,31.38a2.63,2.63,0,0,0,1.73.27,4.51,4.51,0,0,1-1.31-.22Zm0.2,0c-0.34-.06.24-0.05-0.3-0.13a0.33,0.33,0,0,0,0,.1l0.3,0Zm26.18-30.62c-0.23.23,0.32,0.49,0.17,0.63a0.21,0.21,0,0,1,.08,0Zm0-.35-0.06.05,0.1,0.15ZM366.5,68.31l-0.8,0c1-.3,8.63-0.54,16.17,3.6a25.52,25.52,0,0,1,8.94,9.13,27,27,0,0,0-23.63-12.78l0,0.08a0.26,0.26,0,0,0-.25,0l0,0a0.88,0.88,0,0,1-.86.13l0.7-.15Zm0.54,0,0.07,0h-0.06v0Zm-0.47,0h0Zm26.07,18.42a0.29,0.29,0,0,0,.08.38C392.61,87,392.82,86.71,392.64,86.73Zm-42.14,21.7,0-.05-0.1,0A0.19,0.19,0,0,0,350.51,108.43Zm41.6-24.24a0.61,0.61,0,0,1,.14-0.1L391.5,83C391.16,83.58,392.32,83.84,392.1,84.19Zm-1.29-3.11a23.13,23.13,0,0,1,3.45,10.3C394.52,89.18,393.41,85.16,390.81,81.08ZM395,95.79s0,0.05,0,.08A0.32,0.32,0,0,0,395,95.79Zm-49.36.61c0-2.35.05,0.13,0.1-1.33a17.92,17.92,0,0,1,.13-5.68A22,22,0,0,0,345.65,96.4Zm0.84,5.21,0.11,0.23-0.07-.2ZM346.2,83.1a0.56,0.56,0,0,0-.24.72C345.86,83.56,346.51,83.24,346.2,83.1Zm0.68,1.58h0l-0.08,0ZM344,95a0.24,0.24,0,0,0-.06.08h-0.08c0,0.15.31,0,.2-0.08h0a0.12,0.12,0,0,0,.1-0.09l-0.07-.05A0.36,0.36,0,0,0,344,95Zm2.46-12.13a0.53,0.53,0,0,1,.17,0l0.16-1.28C346.16,81.8,346.84,82.77,346.45,82.89Zm1.34-3a2.85,2.85,0,0,0-.25.42l0.31-.37A0.06,0.06,0,0,1,347.78,79.9Zm4.57-5.2-0.09.08Zm-0.09.08a1.84,1.84,0,0,0-.17.07L347.84,80a0.36,0.36,0,0,0,.16,0C349.72,77.77,351.37,75.69,352.26,74.79Zm-5.06,6.29-0.15,0,0,0.36Zm0.58-1.17c0.73-1,2.61-3.12,3.76-4.44C350.9,76,347.7,79.45,347.78,79.9Zm22.49,34.33-0.33.07,1.39-.18ZM364.51,68.3a0.32,0.32,0,0,1,0-.08l-0.63.16C364.05,68.64,364.38,68.14,364.51,68.3ZM346.74,84.6h0Zm0.09,0h0Zm-0.13-.07,0,0h0l0.07,0s0.12,0,0,0c0,0,0,0-.22-0.09Zm3.8,23.9v0l-0.08,0Zm0,0h0Zm-3.71-6a7.28,7.28,0,0,1-.31-0.79l-0.13-.13Zm-0.31-.79h0l0,0v0Zm0,0,0-.12Zm-2.33-6.64h0V94.85l-0.07,0A0.12,0.12,0,0,1,344.14,94.93Zm14-24.19-0.78.38A2.59,2.59,0,0,0,358.1,70.74Zm-14,24.13h0Zm12.63-23.11-3.08,2.15,3.82-2.55ZM344.07,94.87h0ZM355,73.08c1.71-.91,3.23-1.79,4.48-2.56,0.33-.73-0.6-0.21-1.34.21C362.42,68.69,354.17,73.46,355,73.08Zm8.77-4.82-0.21,0,0,0.06Zm4.6,44.65,0-.07a0.53,0.53,0,0,0-.15.1C368.23,113.09,368.24,112.83,368.33,112.92Zm-6.3-.68-0.18,0,0.2,0Zm-0.92-.16,0.65,0c-0.11-.3-0.57.07-0.64-0.12A0.24,0.24,0,0,1,361.1,112.08Zm1.91,0.38a0.28,0.28,0,0,0-.38,0C362.75,112.37,363,112.64,363,112.47Zm1.08,0.14-0.17.06h0.21Zm-0.93,0,0.64-.1c-0.17-.27-0.54.19-0.65,0A0.19,0.19,0,0,1,363.17,112.64Zm-2.18-.76a0.29,0.29,0,0,0-.37-0.1C360.75,111.73,360.94,112,361,111.88ZM349.91,87.57l-0.07,0,0.07,0h0Zm29.66,23.67,0,0h0.09l0,0h-0.09ZM349.79,87.52h0Zm0,0,0.05,0s0.1,0,0,0l-0.11,0,0,0h0Zm0,14.51-0.07-.18-0.13-.28c0,0.12.09,0.26,0.16,0.42h0Zm31.28,7.78,0.07-.1-0.17.13,0,0h0ZM347.65,95.93h0l0.05,0A0.09,0.09,0,0,0,347.65,95.93Zm19.1,16.65a0.24,0.24,0,0,1,0-.08l-0.61.15C366.3,112.9,366.62,112.41,366.74,112.57Zm-0.91,0,0.16-.08-0.2,0Zm28.79-13.81a7.06,7.06,0,0,1,.43,1.1,49.45,49.45,0,0,1-2.79,7.81c-0.21-.08-0.32.57-0.55,0.58-0.41.8-1.16,1.72-1.47,2.24a1.56,1.56,0,0,1-1,.5,6.94,6.94,0,0,1-1.76,1.88l0-.08a5.51,5.51,0,0,1-1.88,1.23c-0.38.67-1.54,0.89-2.14,1.44a20.27,20.27,0,0,1-3,1,0.16,0.16,0,0,0-.12-0.15c-0.25.41-1.3,0.34-1.33,0.61-0.67-.29-0.67.35-1.36,0.15a0.08,0.08,0,0,0,.07-0.06,2.45,2.45,0,0,1-1.54-.14c0.27,0.2-.47.13-0.64,0.25a27.06,27.06,0,0,1-3.5-.16c0.22-.27-0.34.17-0.44,0l-0.07-.09a1.27,1.27,0,0,0-.8-0.15v0l-0.17-.12a17.65,17.65,0,0,1-2.31.19l0.24,0-0.27,0h-0.16l-1.53-.2-0.18-.08,1.74,0.28c0.68,0,1.48-.16,2.32-0.3l-0.06-.06-1,.13h-0.88l1.81-.19-0.06,0a20.94,20.94,0,0,1-3.46,0h-0.25a21.09,21.09,0,0,1-2.12-.19l1.65,0.28,0.05,0.07c-2.07-.29-4.57-0.67-3.36-0.64l0.11,0-0.09,0h0c-1.18-.21-1.66-0.31-0.27-0.06a23.58,23.58,0,0,1-2.67-.78c0.09,0,.08,0,0-0.05a5,5,0,0,1-1.6-.6c-0.13-.09,0,0,0-0.06a19.36,19.36,0,0,1-3-1.63,0.15,0.15,0,0,0,.1,0l-0.75-.49,0.16,0.08a22,22,0,0,1-4.55-4.34v0h0a1.18,1.18,0,0,1,.1.26l-0.11-.05,0.11,0.12a0.31,0.31,0,0,1-.19-0.33h0a0.32,0.32,0,0,1-.2-0.35,21.49,21.49,0,0,1-1.85-2.9c0.06,0.33-.6-0.71-0.87-1.47a5,5,0,0,1-.5-0.82l-0.25-.67c0.25,0.48.64,1,.75,1.33s0.32,0.56.45,0.81h0a20,20,0,0,1-.93-2.32c0,0.13.09,0.12,0.11,0.12l-0.16-.34,0,0a14,14,0,0,1-.39-1.54c0,0.08,0,.08,0,0.08a9.63,9.63,0,0,1-.24-1.5c0,0.08,0,.08,0,0-0.12-.34-0.31-0.73-0.42-1.08a31.73,31.73,0,0,1,.77-8.75,0.17,0.17,0,0,0,.07-0.1c0.11-.64.23-1.26,0.36-1.84,0.1,0,.23-0.68.35-0.79a23.53,23.53,0,0,1,1-2.77,2.49,2.49,0,0,1,.68-0.91,11.94,11.94,0,0,1,1.2-2.12,17,17,0,0,1,1.39-2.61,25.3,25.3,0,0,0-5.5,10.2,24.11,24.11,0,0,1,6.17-11.06,5,5,0,0,1,.51-0.51h0a1.14,1.14,0,0,0,.22-0.3,0.11,0.11,0,0,0,0,.1l0.09-.09c0.28-.34.65-0.58,1-0.9,0,0,0,.06,0,0.07l0,0c0.13-.34.24-0.76,0.4-1.09a45.75,45.75,0,0,1,7.42-4c0.1,0.18.63-.18,0.81-0.06a26.9,26.9,0,0,1,2.63-.73,3.21,3.21,0,0,1,.88.11,7.3,7.3,0,0,1,2.1-.15l-0.1,0c0.41,0,.89.07,1.2,0.06l-0.12,0a17,17,0,0,1,4.06.55l-0.14-.08a26.37,26.37,0,0,1,2.62.79l0,0,0.4,0.18,0,0a14.79,14.79,0,0,1,2,1c4.94,2,8.79,5.3,10.25,8.48a22,22,0,0,0-9.31-8c0.62,0.46,1.32.95,1.95,1.49,1.49,0.52,2.68,1.75,3.93,2.51l0,0.09a13.55,13.55,0,0,1,2,2,27.77,27.77,0,0,1,3.51,6.82h-0.08c0.09,0.19.17,0.4,0.25,0.6a22.83,22.83,0,0,1,3.7,7.42c0-.07,0-0.14,0-0.21,0,0.12,0,.22,0,0.32a15.4,15.4,0,0,1,.46,2.83,0.15,0.15,0,0,0-.17-0.12L394.94,96l-0.05,0a7.13,7.13,0,0,1,0,1.49c0-.08,0-0.08-0.07-0.08,0,0.48-.19.93-0.19,1.41C394.68,98.78,394.65,98.77,394.62,98.81Zm-48.45-2.26c0-.54-0.08-1.1-0.08-1.66,0-.39,0-0.8,0-1.19A10.18,10.18,0,0,0,346.17,96.55ZM390.54,86a20.87,20.87,0,0,0-1.6-2.22c0.16,0.34.31,0.69,0.45,1l0-.06a33.19,33.19,0,0,1,1.1,3.32l-0.08-.05a20.65,20.65,0,0,1,.6,3.48l-0.07,0L391,92.05l0-.05c0.13,0.93,0,2.22,0,2.93l-0.06-.17a14.19,14.19,0,0,1-.73,4.32V99c-0.08.28-.16,0.57-0.24,0.85,0,0.11-.06.23-0.1,0.33v0l-0.11.32a8,8,0,0,1-.36,1,20.42,20.42,0,0,1-1.09,2.33,0.8,0.8,0,0,1,0,.13l-0.1.1a1.86,1.86,0,0,1-.1.18,10.79,10.79,0,0,1-.49,1l0-.15a20.92,20.92,0,0,1-3.83,4.64l-0.06,0a21,21,0,0,1-2.34,1.93,17.92,17.92,0,0,1-2,1.22,22.93,22.93,0,0,1-5.78,2.65l0.55,0c1.93,0.18,4.15-1.38,5.95-2,2.91-1.34,4.93-4.11,6.73-6.54a25.52,25.52,0,0,0,3.69-8.09l0.07,0A29.49,29.49,0,0,0,391,87.56Zm0.71,11.16a0.59,0.59,0,0,1,.08.18l0-.17A0.08,0.08,0,0,0,391.26,97.21Zm-0.18,1.32,0.06-.23C391.11,98.37,391.09,98.44,391.07,98.52Zm-0.17.3c-0.15.53-.26,1.09-0.41,1.65,0.17-.51.33-1,0.47-1.54A0.55,0.55,0,0,1,390.9,98.83Zm-1,3.08c0,0.11-.05.22-0.08,0.32l0.1-.25A0.11,0.11,0,0,0,389.91,101.91Zm-22.63,12.81c3.42,0,9.64-2.15,6.18-1.14,2.83-.87-0.11,0-3.19.65l-2.78.3h0.71l1.74-.22a24.14,24.14,0,0,1-2.77.41l-1.4-.23,0,0c-0.27,0,.2,0-0.24-0.1a0.22,0.22,0,0,0,0,.08l-2.67-.47h0.08c-1.49-.27-1.11-0.19-0.08,0-1,0,1,.29,2.71.53a2.16,2.16,0,0,0,1.41.22h0.26l0.24,0Zm-14.92-8.12,0.22,0.31c0.24,0.28.48,0.55,0.73,0.82,0.4,0.43.82,0.82,1.23,1.2l-0.29-.32C353.7,108,353,107.34,352.37,106.6Zm1.62,1.45-0.26-.37-0.17-.1Zm1.28,1.19c0.05,0,.06-0.07.05-0.18a3,3,0,0,1-1.08-.84l0.25,0.31C354.74,108.78,355,109,355.27,109.24Zm5,3,0.06,0,0.33,0.13q0.58,0.23,1.17.42a1.53,1.53,0,0,1,.5.32c0.63,0,1.69.38,2.58,0.46h-0.08c0.6,0,1.25.17,1.79,0.24l-0.34-.22,0.28,0,0.12,0.08c0.06,0-.13,0,0,0.11l0,0h1.09a3.54,3.54,0,0,0,.58-0.07,17.32,17.32,0,0,0,2.94-.41s0,0.06.08,0.07a10.55,10.55,0,0,0,1.26-.47c0.59,0,.6-0.32,1.21-0.36a0.1,0.1,0,0,0-.06,0,8.75,8.75,0,0,1,1.36-.44c-0.27,0,.39-0.23.51-0.34l0.2-.11a20,20,0,0,0,2.67-1.41l0,0.06,0.29-.22a9.53,9.53,0,0,0,2-1.71,18.28,18.28,0,0,1-3.83,2.62l0.16-.1,0.24-.18a6.29,6.29,0,0,1-.59.21h0.08a12.87,12.87,0,0,1-2.54.74,4.07,4.07,0,0,1-1,.36,19.16,19.16,0,0,1-2.73.28,7.42,7.42,0,0,0-.81.09,18.42,18.42,0,0,1-7.1-2l0.77,0.84a1,1,0,0,1,.48.19c0.11,0.33.72,0.64,0.73,0.9a16.64,16.64,0,0,1,1.87,1.17h-0.27c-0.81-.53-1.61-1.09-2.42-1.61a0.11,0.11,0,0,0,0-.17,18.49,18.49,0,0,1-1.66-1.52l-0.52-.26c-0.28-.21-0.57-0.49-0.85-0.7,0,0,0,0,0,0-0.4-.26-0.8-0.47-1.19-0.74l-0.05,0,0.06,0.06-0.11-.08a30.14,30.14,0,0,1-5-3.18l0-.05a8.86,8.86,0,0,1-2.16-2.24,16.45,16.45,0,0,0,3.69,5.9h0a16.09,16.09,0,0,0,2.53,2.25c-0.08-.06-0.06,0-0.07,0l0.79,0.52,0.07,0a19.84,19.84,0,0,1-5-3.48q-0.65-.64-1.28-1.37a15.13,15.13,0,0,0,1.28,1.37A18.59,18.59,0,0,0,360.29,112.2ZM350.32,96l0,0c0,0.24,0,.49,0,0.73a22.74,22.74,0,0,0,1.14,3c-0.05-.23-0.1-0.46-0.15-0.69a32.87,32.87,0,0,1-.2-6.09c0,0.07,0,.05,0,0s0-.08,0-0.11a0.53,0.53,0,0,1-.2.27c-0.1.8-.39,1.6-0.53,2.4,0,0.07,0-.12-0.11,0s0,0.18,0,.26S350.37,95.78,350.32,96Zm8.25-22.51a21.71,21.71,0,0,1,2-.92,12.57,12.57,0,0,0-1.91.82Zm0.11-.09-0.06,0Zm-0.74,1.73v0c-0.75.54-1.55,1.08-2.29,1.66l0.59-.35s0,0,.11,0a10.65,10.65,0,0,1,1.28-.85c0.66-.11.64-0.43,1.33-0.59a0.09,0.09,0,0,0-.07.07,6.07,6.07,0,0,1,1.49-.43h0s0,0,.07-0.06l0.24-.19,0,0a15.94,15.94,0,0,1,7.9-2c0,0.05.64,0.05,0.77,0.1a19.7,19.7,0,0,1,2.61.44,4.46,4.46,0,0,1,.87.34,3.83,3.83,0,0,1,1.33-.2c-0.08,0-.06.06-0.11,0.08a2.12,2.12,0,0,0,.73-0.14l-0.21-.08-0.09,0a4.16,4.16,0,0,1-1-.15l0.15,0c-1.85-.25-3.81-0.77-5.63-0.51l0,0a27.25,27.25,0,0,0-2.84.32A18.86,18.86,0,0,0,357.94,75.08Zm9.15-4A0.13,0.13,0,0,1,367,71a0.52,0.52,0,0,0-.3.08,0.73,0.73,0,0,0-.4,0l0,0.06a0.62,0.62,0,0,0-.41.09C366.25,71.13,366.67,71.08,367.09,71.05Zm17.29,8,0.06,0,0,0-0.12,0a0.08,0.08,0,0,1-.07,0l0.48,0.31h0Zm-4-1.48c0.4,0.37.81,0.76,1.19,1.14,0,0,0,0,0,.08a5.2,5.2,0,0,1,.78.77l0.21,0.2,0,0,0,0a21.59,21.59,0,0,1,2,2.38,19.61,19.61,0,0,1,1.67,2.54,0.24,0.24,0,0,1,0-.09,18.25,18.25,0,0,1-.85-2.19c0-.07.09,0.09,0.09-0.07,0-.39-0.18,0-0.27-0.38l0.11,0a9.33,9.33,0,0,0-.69-1.37c0.16,0.11,0-.1.16-0.09,0.73,1.62,1.24,3.31,1.84,5h0c0.15,0.31.3,0.64,0.44,1,0-.11,0-0.21,0-0.32a1.16,1.16,0,0,1-.27-0.46c0.11-.32-0.2-1-0.06-1.18a18,18,0,0,1-.88-2.25c0-.07.09,0.1,0.09-0.07,0-.4-0.19,0-0.28-0.39l0.11,0a9.78,9.78,0,0,0-.7-1.41c0.09,0.06.09,0,.1,0A26.9,26.9,0,0,0,380.43,77.62Zm6,4.53,0.08,0v0a16.54,16.54,0,0,0-.9-1.43l-0.2-.15c0.71,1.61,1.22,3.28,1.82,4.91-0.07,0-.13,0-0.13.12q0.2,0.76.34,1.56c0.2,0.49.36,1,.51,1.52a0.35,0.35,0,0,1,0-.08,40,40,0,0,0-1.38-6.24Zm1.32,2.93,0,0.06c-0.31-.75-0.58-1.57-0.95-2.3,0,0,0,0,0,0a33.08,33.08,0,0,1,1.19,6.1c0.12,0.38.23,0.76,0.34,1.13L388.31,90a19,19,0,0,1,.57,3.35h-0.06l0.06,0.46,0-.06a8.58,8.58,0,0,1,0,1.38c0-.32.06-0.64,0.08-1a7.16,7.16,0,0,1,0-.79c0-.32,0-0.63,0-0.94s0-.55,0-0.83A25.74,25.74,0,0,0,387.79,85.07Zm-3.51,18.14A18.67,18.67,0,0,0,386,97a20.72,20.72,0,0,0,.23-4.56A36,36,0,0,1,386,97a22.43,22.43,0,0,1-1.41,5c-0.46.73-1.07,1.37-1.43,2.09l-0.07-.12a15.66,15.66,0,0,1-2.15,2.4l-0.1-.1c-0.08.12-.16,0.25-0.25,0.36v-0.08c-0.66.55-1.66,1.18-2.16,1.6l0.06-.2c-1.13.66-2.3,1.57-3.63,1.63,0.08-.06.06-0.07,0.1-0.09a3.72,3.72,0,0,0-1.11.37l0.08-.1c-1.43.62-2.51,0.11-3.68,0.65a3.12,3.12,0,0,1-.33-0.09c0.13,0.34-.7.08-1,0.29l0.12-.14c-1.86.43-3.71-.46-5.45-0.53v-0.1a19.42,19.42,0,0,1-1.9-.46L362.3,110a12.94,12.94,0,0,0,2.9,1.32c3.54,1.27,7.27.81,10.81-.23,0.68-.26,1.36-0.54,2-0.85s1-.86,1.51-1.31l0.34-.39a17.59,17.59,0,0,0,1.25-1.39h0a22.36,22.36,0,0,0,2.61-3.62q0.41-.68.78-1.4c-0.14.34-.29,0.67-0.45,1a26.18,26.18,0,0,1-4.32,5.7l0-.05c-0.34.34-.7,0.68-1.07,1h0.11a1.86,1.86,0,0,0,.56-0.51h0a5,5,0,0,0,.8-0.47,0.41,0.41,0,0,0,.17,0v-0.09c0.15-.11.2-0.11,0.23-0.06A16.86,16.86,0,0,0,384.28,103.21Zm-2.91,6.49,0.2-.09,0.05,0.05C382,109.35,381.47,109.41,381.37,109.71Zm-0.39.16,0,0,0,0h0l0.06-.09c0.16-.08.24,0,0.26-0.15a0.39,0.39,0,0,0-.36.18l0,0h0Zm-1.67-.24-0.08.06,0.1-.05h0Zm-0.89.46h0l0.05,0,0.06-.08Zm-14.92-.76c-0.11,0-.09,0-0.09,0l0.33,0v-0.07c-0.6-.12-1.08-0.23-1.57-0.37A9.47,9.47,0,0,0,363.5,109.33Zm8.23,0.28a5.66,5.66,0,0,0-.89.09Zm3.06-.6,0,0a2.31,2.31,0,0,0-.68.19Zm3.45-1.45,0-.08-0.94.58C377.64,107.91,377.94,107.75,378.24,107.57Zm2.34-1.69h0l0,0.06Zm2.21-2.21,0,0-0.44.56Zm1.75-2.44v-0.09a20,20,0,0,1-1.5,2.23c0.52-.6,1-1.23,1.46-1.86l0.1-.39Zm3.68-8.16c0.21-1.79-.69-5.07-2.77-8.4A19.07,19.07,0,0,1,388.21,93.07Zm-0.09,4.11a9.63,9.63,0,0,0,.31-3.08ZM380,77.45l-0.5-.2q0.83,0.57,1.6,1.21C380.79,78.11,380.42,77.78,380,77.45Zm-2.9.62a0.76,0.76,0,0,0,.1,0,0.52,0.52,0,0,0-.1-0.08l-0.49-.28-0.39-.15h0.08c-0.6-.25-1.09-0.49-1.56-0.72s-1-.36-1.47-0.52a2.14,2.14,0,0,0-.28-0.06h0a10.63,10.63,0,0,0-3.63.78v0a17.16,17.16,0,0,0-3.21,1.27c0.09-.07,0-0.07,0-0.1-3.51,2.28-6.51,4.71-8.55,8.49-1.79,3.37-1.74,7.39-1.41,11.09l0.24,0.5a5.69,5.69,0,0,0,.51,1.83s0,0,0,0c0.51,1.51.71,3.17,1.6,4.26a22.23,22.23,0,0,0,2.05,3.52,16.14,16.14,0,0,0,3,1c-0.11,0-.09,0-0.09,0,4.14,0.54,8,.69,12-0.63,3.61-1.22,6.37-4.05,8.56-7.05l0.13-.54A5.41,5.41,0,0,0,385,99h0c0.28-.69.62-1.38,0.9-2.07,0-.38.08-0.76,0.11-1.14a5.66,5.66,0,0,1,0-.72c0-.29,0-0.58,0-0.88s0-.5,0-0.75a23.75,23.75,0,0,0-1.14-6l0,0.06a13.36,13.36,0,0,0-1.25-2.74l0.08,0a14.15,14.15,0,0,0-1.75-2.5l0,0-0.29-.29,0.05,0a15,15,0,0,0-1.81-1.75l0.15,0C379.26,79.43,378.1,78.79,377.14,78.07Zm-15.86,31.15L361,109.1l-0.44-.16,1.14,0.72Zm-1.14-1.51-0.35-.54c0,0.11-.12.09-0.22,0a13.06,13.06,0,0,1-.93-1.72s0.1,0.09.1,0a1.37,1.37,0,0,0-.29-0.3,0.55,0.55,0,0,1,.1.06,22.69,22.69,0,0,1-2.64-7.15L356,98.13c-0.32-1-.16-2.13-0.48-3.08l0.13,0a17.27,17.27,0,0,1,0-3.15h0.14l-0.06-.44,0.06,0.05c0-.84.43-1.93,0.39-2.6l0.1,0.18c0.36-1.23.57-2.68,1.48-3.61a1,1,0,0,0,0,.13,3.2,3.2,0,0,0,.57-1l0,0.13c0.59-1.41,1.73-1.75,2.23-2.91l0.29-.16c-0.31-.17.47-0.51,0.55-0.85V81c1.08-1.52,3-2.05,4.38-3.11L365.78,78a16.43,16.43,0,0,1,2.46-1.14,15,15,0,0,1,3.7-.81h-0.14l0.14,0c-1.06-.15-2.16-0.39-3.24-0.49-2.15,1.09-4.21,2.41-6.25,3.64l-0.35.46A8.24,8.24,0,0,0,360.54,81l0,0c-1.24,1.17-2.81,2-3.56,3.3a32.08,32.08,0,0,0-5.34,7.25,1,1,0,0,1-.06.54,0.89,0.89,0,0,0-.27.37,27.33,27.33,0,0,0,.32,7.59q0.24,0.49.49,0.95l0.75,1a46.68,46.68,0,0,0,3.17,3.46A13.61,13.61,0,0,0,360.15,107.71Zm-2.3-.68,0.58,0.46a11.69,11.69,0,0,0,1.18.51A18.85,18.85,0,0,1,357.84,107Zm-2.93-2,0,0a12.71,12.71,0,0,1-3-3.41l0,0.14,0,0.11a16.64,16.64,0,0,0,1,1.43,21.2,21.2,0,0,0,4.36,3.69c-0.32-.27-0.64-0.54-1-0.82C355.9,105.72,355.4,105.35,354.91,105Zm-3.08-3.66-0.19-.25,0.22,0.4Zm5.74-23.07v0l-0.19.14a21.92,21.92,0,0,0-3.54,5.14,25.11,25.11,0,0,0-2.41,7.82h0c0,0.19,0,.39-0.07.59a21.69,21.69,0,0,1,3.27-5.47c-0.11,0-.12-0.09,0-0.23,0.35-.17.84-1.23,1.4-1.51,0,0-.06.12,0,0.11a1.13,1.13,0,0,0,.2-0.39s0,0.09,0,.13A35.54,35.54,0,0,1,362,79l0,0.08c0.82-.73,1.9-1.21,2.66-1.95l0,0.14a32.56,32.56,0,0,1,2.77-1.79,6.14,6.14,0,0,0-.69.06l0,0a23.47,23.47,0,0,0-2.61.29A17.28,17.28,0,0,0,357.57,78.26ZM359,76.17l-0.63.31A2.05,2.05,0,0,0,359,76.17Zm9.6-2.84c0,0.05.61,0.05,0.74,0.09a16.72,16.72,0,0,1,2.13.34,11.71,11.71,0,0,1,1.15-.5A15.7,15.7,0,0,0,364,73a11.53,11.53,0,0,0-2.61,1.11,26,26,0,0,1,3.26-.7,1.91,1.91,0,0,0,.45-0.1l0.09,0a2.93,2.93,0,0,0,.87-0.07h0c0.32,0,.44.09,0.75,0.1A10.92,10.92,0,0,1,368.58,73.33Zm-1.11,2.17,0.07,0.11,0.14-.12h-0.21Zm-1.26-1.32h0Zm-0.39-.63,0,0a0.45,0.45,0,0,0-.29.07,0.6,0.6,0,0,0-.38,0l0,0a0.57,0.57,0,0,0-.39.09l0.78-.09Zm-0.38.86c-0.06-.05-0.07.12-0.11,0.09a1,1,0,0,1-.11-0.25,0.57,0.57,0,0,0,.11.25c0.07,0.1.08-.1,0.15,0Zm13.64,2.27a24.72,24.72,0,0,0-4.6-2.76l-0.8-.31-0.48.13-0.88.27,0.29,0.13a21.3,21.3,0,0,1,5.57,2.24Zm-25,1.43-0.23.3A21.36,21.36,0,0,1,359.65,75a10.54,10.54,0,0,0-2.12,1A15.44,15.44,0,0,0,354.11,78.11Zm0.31,2.55c-0.49.76-.94,1.55-1.34,2.33a26.38,26.38,0,0,0-2.52,8.21h0a31.06,31.06,0,0,0-.26,4.07c0.23-1.07.56-2.13,0.83-3.2a0.1,0.1,0,0,0,.09,0c0-.2.07-0.44,0.08-0.72s0,0,0,0a24.4,24.4,0,0,1,.55-3,0.34,0.34,0,0,0,0,.09l0.19-.77,0,0.15a22.56,22.56,0,0,1,4.76-9.12A20.11,20.11,0,0,0,354.42,80.66Zm-3.59,20c0.1,0.46.21,0.92,0.34,1.36s0.37,1.17.6,1.76v0c1,1.44,1.65,3.17,3,4.12a14,14,0,0,0,3.1,2.83c-0.35-.28-0.68-0.57-1.07-0.94a18.67,18.67,0,0,1-4-5.7h0a9.84,9.84,0,0,1-.56-1.34c-0.42-.6-0.83-1.2-1.27-1.74Zm28.86,10.42c0.13,0,.16-0.29,0-0.19l0,0.06a0.41,0.41,0,0,0-.05.1,0.42,0.42,0,0,0-.08.16h0v0h0l0,0,0.06,0a0.13,0.13,0,0,0,.06-0.14h0Zm-2-.18,0.37-.26A1.47,1.47,0,0,0,377.7,110.94Zm-5.19,2.39-1.11.24c0.27,0,.55-0.07.82-0.13a20,20,0,0,0,2.7-1C374.1,112.78,373.25,113,372.51,113.33Zm-5.22.85c0.55,0,1.1,0,1.65-.1q-0.89,0-1.78,0Zm-0.22-.09H367c-0.39,0-.77,0-1.16,0,0.44,0.05.89,0.09,1.33,0.11h0ZM390,84.35l0,0L390,84.4ZM382.86,75a15.78,15.78,0,0,1,1,1.32c0.13,0,.27.1,0.24,0.19v0.12c0.05,0.08.11,0.2,0.18,0.32l0,0a0.71,0.71,0,0,0,.34.3v0a2,2,0,0,1,.1.49L384.89,78A22,22,0,0,1,386.63,80a20.37,20.37,0,0,1,1.54,2.29,8.6,8.6,0,0,1,1.44,1.53,0.09,0.09,0,0,0-.11,0L390,84.29a15.71,15.71,0,0,0-2.64-5.08l0,0A16.8,16.8,0,0,0,385,76.45c0.1,0.07.09,0,.11,0A18.68,18.68,0,0,0,382.86,75Zm0.88,1.83h0l0.12,0.11s0.05,0-.1-0.19h0A0.09,0.09,0,0,1,383.74,76.82Zm-0.28-.23,0.06,0.06,0.09,0A0.34,0.34,0,0,0,383.46,76.58Zm-1.3-2,0.67,0.62c-0.13-.17-0.27-0.33-0.42-0.5Zm-2.91.25a0.27,0.27,0,0,0,.12,0l-0.11-.08-0.54-.3-0.43-.16h0.09c-0.66-.27-1.2-0.55-1.71-0.79l-0.76-.29a12.44,12.44,0,0,0-2,.28c0.46,0.17.95,0.38,1.36,0.59l-0.07,0a11.87,11.87,0,0,1,1.93,1.09,19.58,19.58,0,0,1,2.12,1.41l0.25,0.2a13.23,13.23,0,0,0,1.32.37A35.84,35.84,0,0,1,384,79a1.28,1.28,0,0,1-.27-0.37c0.22,0.19.24,0.07,0.25,0a17.18,17.18,0,0,0-1.51-1.39l0.16,0C381.57,76.35,380.3,75.65,379.25,74.87Zm0.29-1.08-0.24-.21-0.25-.06Zm0.7,0.05h0l0,0.1A0.09,0.09,0,0,1,380.24,73.84ZM379,71.73l0.3,0.19,0-.06Zm-1.34-.55c-0.36-.13-0.72-0.26-1.09-0.38L377,71c-0.05,0-.05.09,0,0.18,0.45-.15,1.22.61,1.42,0.43,0.33,0.66.75,0.18,1.15,0.8a0.08,0.08,0,0,0-.1,0,3,3,0,0,1,.77.64,0.46,0.46,0,0,0,.16,0l-0.12.06,0,0a4,4,0,0,1,.64.12A16.87,16.87,0,0,0,377.64,71.19Zm-0.88.28s0,0.09,0,.18a0.58,0.58,0,0,1,.36,0Zm-1.68-1.29,0.79,0.33,0.74,0.23C376.1,70.52,375.59,70.33,375.08,70.17Zm-4-.82,0.28,0.09,0.15,0Zm-0.05.49,0.25,0.08,0.13,0Zm-4.43,0h0Zm-5.93,2-0.91.64,0.11,0a0.1,0.1,0,0,0-.07.06,5.77,5.77,0,0,1,1.63-.46c-0.3,0,.49-0.23.64-0.34a30.24,30.24,0,0,1,3.77-.84,1.58,1.58,0,0,0,.47-0.1l0.1,0a2.83,2.83,0,0,0,.9-0.07h0a6.81,6.81,0,0,0,1.07.11,0.47,0.47,0,0,0,.17.08l0.09-.08c0.21,0,.25.08,0.23,0.13a22.12,22.12,0,0,1,8.77,1.86c0.24,0,.49.06,0.73,0.07a4.91,4.91,0,0,0-.77-0.38c-2.66-1.83-6.07-2.22-9.29-2.47A31.44,31.44,0,0,0,360.65,71.86Zm-4.38,1.53c0.66-.41,1.35-0.8,2-1.16l-0.28.11A4.86,4.86,0,0,0,356.27,73.4Zm-1,1.71A18.53,18.53,0,0,1,357,73.94s0,0,.11,0a12.31,12.31,0,0,1,1.33-.88,1.6,1.6,0,0,0,.36-0.1l1.18-.89-1.75.66A7.62,7.62,0,0,0,355.23,75.11Zm-1.75,1.15a0.06,0.06,0,0,0,0,0,8.81,8.81,0,0,1,1-1s0,0.08,0,.07,0.09-.24.13-0.36C354.26,75.48,353.87,75.9,353.48,76.26Zm-0.3,1.08a22.27,22.27,0,0,1,4.71-3.53l0.13-.12a17.72,17.72,0,0,0-4.54,3.26Zm-0.6,0h0Zm0,3.13c0.27-.28.55-0.55,0.84-0.82,0.94-.9-0.62.66,0.89-0.76A8.55,8.55,0,0,0,352.55,80.5Zm-0.12-2.89h0v0Zm-0.26-.56h0l0-.09Zm-0.21.23a0.23,0.23,0,0,0,.07.1l0.12-.31ZM350.43,84l0.25-.3a0.3,0.3,0,0,0,.13,0c1.44-1.81,2.81-3.56,3.52-4.26-0.3.31,0-.07-0.21,0.12l-3.44,4.18a0,0,0,0,1,0,0c0.59-.86,2.11-2.55,3-3.63-0.52.43-3.1,3.26-3,3.63A2.51,2.51,0,0,0,350.43,84ZM349.57,82l0.24-.4,0-.13C349.75,81.6,349.66,81.78,349.57,82Zm0,11.06h-0.08a24.93,24.93,0,0,0,.63,3c0-.07,0-0.13,0-0.19,0-1,0-2,0-3,0,0.07,0,.05,0,0a12.51,12.51,0,0,1,.16-1.59c0-.14,0,0,0,0a26.08,26.08,0,0,1,.58-3.11,0.19,0.19,0,0,0,0,.09l0.19-.81,0,0.16a25.52,25.52,0,0,1,2.59-6.24l-0.24.31a15.59,15.59,0,0,0-3.4,5c0-.08,0-0.08-0.06-0.06a2,2,0,0,1-.35.87h0a2.12,2.12,0,0,0-.11.29A17,17,0,0,0,349.59,93Zm0.59,3v0.05l0,0.05S350.18,96.11,350.18,96.07Zm-0.84-1.41,0,0.09,0,0ZM349,91.73a12.7,12.7,0,0,0,.16,1.37h-0.08a0.46,0.46,0,0,1,.1.06C349.13,92.71,349,92.22,349,91.73Zm0-1.64,0.05,0,0-.34C349,89.89,349,90,349,90.09Zm-0.17,4.58,0.06,0.21a0.1,0.1,0,0,0,.11,0A0.52,0.52,0,0,1,348.78,94.67Zm-0.43-1.92a8.87,8.87,0,0,0,.28,1.42l0,0,0.05,0.19a2.79,2.79,0,0,0-.14-1.1c0-.15.12,0,0.15,0,0-.52-0.14-1.06-0.2-1.61Q348.4,92.2,348.35,92.75ZM349,100c0.17,0.48.35,0.94,0.55,1.41l-0.09-.09,0.31,0.66h0a0.06,0.06,0,0,0-.06,0l0.19,0.29,0,0c0.29,0.47.46,1,.72,1.34-0.06-.07-0.06-0.07-0.08-0.05a11.84,11.84,0,0,0,.72,1.28c0-.06-0.06-0.06,0,0,0.26,0.24.59,0.49,0.83,0.74a15.07,15.07,0,0,0,1.15,1.56l0-.1a0.09,0.09,0,0,0,.09,0,3.15,3.15,0,0,1-.77-1.43c0,0.36-.36-0.36-0.56-0.43a25,25,0,0,1-1.87-3.18c0.34,0-.34-0.22-0.22-0.41l0.05-.12a1.39,1.39,0,0,0-.35-0.8h0a5.63,5.63,0,0,0,0-1.08,0.44,0.44,0,0,0,.15-0.2l-0.18,0c0.07-.45.31-0.22,0.51-0.21s0.38,0.53.36,0.68c-0.21-.44-0.25.13-0.31-0.07-0.45.15,0.32,0.91-.06,1.08,0,0.26.17,0.14,0.21,0.24,0.08,0.31-.19,0,0,0.39l0.11,0c-0.14.29,0.65,0.44,0.61,0.8l0,0a1.16,1.16,0,0,0,.51,1,25.28,25.28,0,0,1-.76-2.91,34.82,34.82,0,0,1-1.35-3.67,12.75,12.75,0,0,1-.86-2.57s0,0.17,0,0-0.1-.46-0.15-0.65A19.17,19.17,0,0,0,349,100Zm-1.57-3.9c0,0.12.25,0,.17-0.07h0c0.07,0,.08-0.06.08-0.08h0V95.91l-0.05,0h0s-0.12.09-.08,0.11l0,0.06h-0.07Zm22.82,20.28a1.22,1.22,0,0,0-.33-0.16c-1,.12-2.08.16-3.06,0.19A24.18,24.18,0,0,0,370.26,116.39Zm0.87-1.54a13.75,13.75,0,0,0,2.6-.72,18.85,18.85,0,0,1-20.65-5.49,22.74,22.74,0,0,1-5.86-14.47,16.42,16.42,0,0,0,1.9,8.56,20.41,20.41,0,0,0,4,5.91A18.8,18.8,0,0,0,371.14,114.85Zm0.42,1.5,1.71-.22-1.31.14,1.51-.32h-0.13q-1.08.22-2.21,0.35c0.68-.09,1.35-0.2,2-0.34-0.65,0-1.29.06-1.92,0.07l-0.57.1a0.82,0.82,0,0,1,.46.17h0l0,0,0.82-.09-0.4.08-0.41.05a0.21,0.21,0,0,1,0,0Zm22.8-21c-0.06.3-.13,0.63-0.21,1a27.1,27.1,0,0,1-.91,4.48A39.42,39.42,0,0,0,394.29,95a26.59,26.59,0,0,0-2.15-6.17c-0.28-.51-0.56-1-0.86-1.52,0.21,1.1.32,2.23,0.57,3.27v0.4a24.87,24.87,0,0,1-.29,5.24c0.15-1.22.23-2.44,0.26-3.63-0.06,1.46-.2,2.91-0.38,4.35,0-.24.09-0.48,0.13-0.72a20.37,20.37,0,0,1-3.38,9.6,19.85,19.85,0,0,1-6.41,7.38,0.15,0.15,0,0,0,0-.22l-0.26.27-0.06,0a7.81,7.81,0,0,1-1.34.79c0.06-.08.06-0.08,0-0.11a14.16,14.16,0,0,1-1.4.54c0.07,0,.06-0.06,0-0.07a7,7,0,0,1-.87.94l0,0a19.53,19.53,0,0,1-3.18.59c-0.95.24-2.08,0.49-3.22,0.69,0,0,0,.06.19,0.07l0.07-.09c0.15,0.27.68-.35,1-0.1h-0.07c0.33,0.48,1.11-.1,1.69.17l-0.06-.09c1.63,0,3.36.34,4.8-.2,3.23-.38,6.07-2.33,8.66-4.29a33.31,33.31,0,0,0,5.73-8.72c0.93-1.58.55-4.1,0.87-5.89A9.81,9.81,0,0,0,394.36,95.38Zm-12.58,17.77-0.06,0Zm6.68-3.57a20.31,20.31,0,0,0,4.79-8.71,21.57,21.57,0,0,1-1.67,4A25.56,25.56,0,0,1,388.45,109.58Zm-22.53,5a3.59,3.59,0,0,0,1.06.17h0.15Zm22.53-5c-0.35.38-.72,0.77-1.11,1.16A11.16,11.16,0,0,0,388.45,109.58Zm-22.68,4.9-0.24,0,0,0.06,0.35,0Zm1.49-1.85c-0.1.09-.36-0.15-0.37,0A0.28,0.28,0,0,0,367.26,112.63ZM395,99.91h0v0Zm-27,12.75a0.79,0.79,0,0,0,.12.29A1.51,1.51,0,0,1,368,112.66ZM361.74,110l0,0h0Zm7.45,2.55h0Z" transform="translate(-343.84 -68.2)"/></svg>