<?xml version="1.0" standalone="no"?>
<!DOCTYPE svg PUBLIC "-//W3C//DTD SVG 20010904//EN"
 "http://www.w3.org/TR/2001/REC-SVG-20010904/DTD/svg10.dtd">
<svg version="1.0" xmlns="http://www.w3.org/2000/svg"
 width="512.000000pt" height="512.000000pt" viewBox="0 0 512.000000 512.000000"
 preserveAspectRatio="xMidYMid meet">
<metadata>
Created by potrace 1.11, written by Peter Selinger 2001-2013
</metadata>
<g transform="translate(0.000000,512.000000) scale(0.100000,-0.100000)"
fill="#000000" stroke="none">
<path d="M2447 4645 c-1 -2 -36 -5 -77 -9 -364 -30 -768 -187 -1058 -409 -106
-82 -112 -86 -227 -202 -196 -195 -328 -391 -437 -645 -49 -115 -100 -270
-115 -349 -2 -14 -6 -28 -8 -31 -2 -4 -6 -20 -9 -36 -12 -73 -27 -185 -28
-206 -1 -13 -6 -29 -11 -35 -6 -9 -6 -13 2 -13 7 0 8 -8 2 -22 -8 -25 -6 -228
4 -318 29 -268 94 -496 205 -725 213 -440 585 -799 1034 -997 175 -77 435
-147 614 -166 139 -14 462 -6 553 14 13 3 38 7 54 9 67 10 270 67 357 100 723
279 1222 907 1333 1679 19 130 24 353 11 451 -3 22 -8 60 -11 85 -103 796
-646 1461 -1400 1714 -91 31 -255 73 -312 81 -21 3 -54 8 -73 11 -85 12 -133
15 -263 18 -75 1 -138 2 -140 1z"/>
</g>
</svg>
