<?xml version="1.0" encoding="utf-8"?>
<!-- Generator: Adobe Illustrator 18.1.0, SVG Export Plug-In . SVG Version: 6.00 Build 0)  -->
<svg version="1.1"
	 id="svg2" sodipodi:docname="megaphone.svg" inkscape:version="0.47 r22583" xmlns:inkscape="http://www.inkscape.org/namespaces/inkscape" xmlns:dc="http://purl.org/dc/elements/1.1/" xmlns:sodipodi="http://sodipodi.sourceforge.net/DTD/sodipodi-0.dtd" xmlns:rdf="http://www.w3.org/1999/02/22-rdf-syntax-ns#" xmlns:cc="http://creativecommons.org/ns#" xmlns:svg="http://www.w3.org/2000/svg"
	 xmlns="http://www.w3.org/2000/svg" xmlns:xlink="http://www.w3.org/1999/xlink" x="0px" y="0px" viewBox="-74 91 150.7 120"
	 enable-background="new -74 91 150.7 120" xml:space="preserve">
<defs>
	
	
		<inkscape:perspective  id="perspective10" sodipodi:type="inkscape:persp3d" inkscape:vp_y="0 : 1000 : 0" inkscape:vp_z="744.09448 : 526.18109 : 1" inkscape:vp_x="0 : 526.18109 : 1" inkscape:persp3d-origin="372.04724 : 350.78739 : 1">
		</inkscape:perspective>
</defs>
<sodipodi:namedview  inkscape:document-units="px" inkscape:current-layer="layer1" inkscape:window-y="-8" inkscape:pageopacity="0.0" inkscape:window-x="-8" inkscape:window-height="748" inkscape:pageshadow="2" inkscape:window-width="1280" borderopacity="1.0" pagecolor="#ffffff" inkscape:zoom="1" id="base" inkscape:cx="38.284615" bordercolor="#666666" inkscape:cy="33.215379" showgrid="false" inkscape:window-maximized="1">
	</sodipodi:namedview>
<g id="layer1" transform="translate(-0.90625,-1.65625)" inkscape:groupmode="layer" inkscape:label="Calque 1">
	<path id="path2818" inkscape:export-xdpi="358.23999" inkscape:export-ydpi="358.23999" fill="#FFFFFF" d="M63.8,92.7
		c-45.6,44.7-69,40.8-128.2,45.3v5.6l-8.7,2.9v12.2l8.7,2.9v6.7c7.3,0.8,13.9,1.3,20.1,1.7c-9.3,16-13,29.9-9.7,35.7
		c0,0,31.9,14.4,30.2,1.5c-1.1-8.6,1.9-23.6,4.9-35.9c29,1.7,48.5,6.1,82.4,41.1c3.3-16.7,4.9-33.4,5.3-50.1l6.5-1.5
		c3.2-5.6,2.5-11.1,0-16.7l-6.6-1.5C68.3,126.1,66.5,109.4,63.8,92.7z"/>
</g>
</svg>
