<?xml version="1.0" encoding="utf-8"?>
<!-- Generator: Adobe Illustrator 17.0.0, SVG Export Plug-In . SVG Version: 6.00 Build 0)  -->
<!DOCTYPE svg PUBLIC "-//W3C//DTD SVG 1.1//EN" "http://www.w3.org/Graphics/SVG/1.1/DTD/svg11.dtd">
<svg version="1.1"
	 id="svg2" xmlns:inkscape="http://www.inkscape.org/namespaces/inkscape" xmlns:rdf="http://www.w3.org/1999/02/22-rdf-syntax-ns#" xmlns:cc="http://creativecommons.org/ns#" xmlns:svg="http://www.w3.org/2000/svg" xmlns:sodipodi="http://sodipodi.sourceforge.net/DTD/sodipodi-0.dtd" xmlns:dc="http://purl.org/dc/elements/1.1/" sodipodi:docname="Black_Peace_Dove.svg" inkscape:version="0.48.0 r9654"
	 xmlns="http://www.w3.org/2000/svg" xmlns:xlink="http://www.w3.org/1999/xlink" x="0px" y="0px" width="52.875px"
	 height="47.875px" viewBox="388.416 357.625 52.875 47.875" enable-background="new 388.416 357.625 52.875 47.875"
	 xml:space="preserve">
<path fill="#002B5C" stroke="#FFFFFF" d="M438.657,363.286c-1.659,0.76-1.866,4.286-1.866,4.286c-0.484-1.106-1.521-2.35-1.521-2.35
	c3.249-5.046-2.074-6.222-2.074-6.222c-0.83,1.175-0.691,4.355-0.691,4.355c-6.636-7.051-9.954-2.834-9.954-2.834
	c1.025,2.051,5.153,3.101,7.49,3.541c0.483-0.003,1.026,0.073,1.635,0.261c0,0-0.663-0.078-1.635-0.261
	c-2.367,0.012-3.274,1.92-3.274,1.92c4.77,3.526,7.397,0.484,7.397,0.484c1.175,1.383,1.452,2.419,1.452,2.419
	c-1.59-1.383-5.254-0.484-5.254-0.484c1.728,4.562,6.913,3.042,6.913,3.042c1.037,2.489-0.069,3.318-0.069,3.318
	c-8.365-6.636-15.554,3.111-15.554,3.111c-0.691-8.641-17.075-10.024-17.075-10.024c5.461,6.014,4.079,7.95,4.079,7.95
	c-10.369,2.558-19.149-1.175-19.149-1.175c4.079,12.927,18.112,14.793,18.112,14.793c0.76,4.286-12.72,11.683-12.72,11.683
	l9.125,3.526c0-2.281,5.185-6.705,5.185-6.705c20.116,2.074,20.808-13.342,20.808-13.342c2.005-7.466,7.742-7.397,7.742-7.397
	c0.83,0.553,0.069,3.802,0.069,3.802c3.249-2.143,0.553-10.508,0.553-10.508C443.151,365.429,438.657,363.286,438.657,363.286z
	 M438.556,376.973c-0.276,0.277-0.691,0.069-0.968,0.207C437.865,377.043,438.28,377.25,438.556,376.973
	c-0.069-0.83-0.83-1.59-1.383-2.212C437.727,375.383,438.487,376.144,438.556,376.973z"/>
</svg>
