<?xml version="1.0" encoding="utf-8"?>
<!-- Generator: Adobe Illustrator 17.0.0, SVG Export Plug-In . SVG Version: 6.00 Build 0)  -->
<!DOCTYPE svg PUBLIC "-//W3C//DTD SVG 1.1//EN" "http://www.w3.org/Graphics/SVG/1.1/DTD/svg11.dtd">
<svg version="1.1"
	 id="svg2" inkscape:export-ydpi="360" inkscape:export-xdpi="360" inkscape:export-filename="D:\Dokumenty\Wikipedie\_mapy a grafy\Lipa_HB_CZ_CoA-strom2c.png" sodipodi:docname="_Pod_lÃƒÆ’Ã‚Â­pou_plamennou2-cut.svg" inkscape:version="0.47 r22583" xmlns:rdf="http://www.w3.org/1999/02/22-rdf-syntax-ns#" xmlns:svg="http://www.w3.org/2000/svg" xmlns:dc="http://purl.org/dc/elements/1.1/" xmlns:cc="http://creativecommons.org/ns#" xmlns:sodipodi="http://sodipodi.sourceforge.net/DTD/sodipodi-0.dtd" xmlns:inkscape="http://www.inkscape.org/namespaces/inkscape"
	 xmlns="http://www.w3.org/2000/svg" xmlns:xlink="http://www.w3.org/1999/xlink" x="0px" y="0px" width="24.375px"
	 height="34.25px" viewBox="241.625 317.75 24.375 34.25" enable-background="new 241.625 317.75 24.375 34.25"
	 xml:space="preserve">
<g opacity="0.5">
	
		<image overflow="visible" enable-background="new    " width="235" height="98" xlink:href="459509A2.png"  transform="matrix(0.0897 0 0 0.0892 244.9144 344.2589)">
	</image>
</g>
<path id="path2043" sodipodi:nodetypes="cccccc" fill="#E73900" d="M245.319,345.092c-6.127-8.614,1.271-9.384-0.616-21.177
	c4.628,5.564,5.92,12.388,7.863,14.407c1.341,1.585,2.002,3.499,1.822,5.465c-0.018,1.556,2.129,3.441,1.542,4.894
	C252.808,346.39,247.438,347.882,245.319,345.092z"/>
<path id="path2041" sodipodi:nodetypes="cccccccc" fill="#E73900" d="M254.585,347.607c0.035-1.65-2.144-2.365-3.021-3.654
	c-1.452-0.984-1.912-2.516-1.944-4.024c-0.118-2.413,2.23-16.798,5.651-20.661c-1.311,5.932,1.944,13.835,3.954,16.449
	c1.361,2.031,1.872,4.37,1.382,6.671c-0.241,1.836-1.901,2.939-2.8,4.586C256.909,347.966,255.686,348.06,254.585,347.607z"/>
<path id="path2063" sodipodi:nodetypes="cccccsc" fill="#E73900" d="M255.827,348.414c0.521-1.433-0.51-3.705-0.835-5.034
	c-0.882-1.197-0.796-2.642-0.372-3.968c0.625-2.135,0.728-12.212,10.816-16.944c-7.823,7.03-2.629,12.743-1.782,15.494
	c0.495,2.091,0.242,4.27-0.874,6.15C261.24,346.707,257.127,348.138,255.827,348.414z"/>
<path id="path1305" sodipodi:nodetypes="cccccccc" fill="#E78C00" d="M254.165,347.574c0.027-1.347-1.622-1.931-2.285-2.983
	c-1.098-0.803-1.446-2.054-1.471-3.286c-0.089-1.97,2.102-12.383,3.859-16.867c-1.199,10.166,1.885,11.295,3.406,13.429
	c1.029,1.658,1.416,3.568,1.045,5.446c-0.182,1.499-0.967,2.865-1.647,4.209C256.394,348.332,254.998,347.944,254.165,347.574z"/>
<path id="path2061" sodipodi:nodetypes="ccccs" fill="#E78C00" d="M247.843,345.644c-6.294-5.917,0.564-6.33-1.182-14.456
	c2.073,3.831,3.792,6.708,4.547,9.428c1.117,0.96,4.977,6.823,4.745,7.886C253.521,347.234,249.655,347.348,247.843,345.644z"/>
<path id="path2051" sodipodi:nodetypes="ccccs" fill="#E7E100" d="M249.1,345.288c-3.765-3.273-0.953-5.195-0.987-9.283
	c1.041,3.578,4.333,4.459,4.29,6.608c0.544,0.643,3.391,5.228,3.153,5.817C254.291,347.502,250.526,346.528,249.1,345.288z"/>
<path id="path2045" sodipodi:nodetypes="ccccscc" fill="#E78C00" d="M255.152,344.847c-0.661-0.898-0.598-1.982-0.279-2.977
	c0.469-1.602,2.53-10.508,5.473-12.445c-2.126,3.661,0.67,9.292,1.305,11.356c0.371,1.569,0.475,3.424-0.656,4.614
	c-1.708,1.798-3.864,2.845-5.073,3.096C255.155,348.985,255.395,345.844,255.152,344.847z"/>
<path id="path1310" sodipodi:nodetypes="cccccccc" fill="#E7E100" d="M254.088,347.673c0.053-0.824-0.94-1.219-1.318-1.879
	c-0.651-0.517-0.829-1.291-0.811-2.045c-0.001-1.208-0.046-8.738,1.624-10.609c-0.739,2.943,2.045,7.329,2.918,8.671
	c0.585,1.039,0.77,2.217,0.491,3.358c-0.152,0.913-0.67,1.732-1.123,2.54C255.432,348.188,254.588,347.918,254.088,347.673z"/>
<path id="path2047" sodipodi:nodetypes="cccccccc" fill="#E7E100" d="M254.883,347.778c0.428-0.574-0.103-1.253-0.063-1.878
	c-0.225-0.631,0.011-1.26,0.381-1.797c0.57-0.872,1.572-7.353,3.662-8.042c-1.924,1.831,1.417,6.725,1.413,8.04
	c-0.069,0.982-1.372,2.308-2.113,3.022c-0.542,0.599-1.613,1.174-2.322,1.578C255.298,348.397,255.127,348.153,254.883,347.778z"/>
<path id="path2049" sodipodi:nodetypes="cccccc" fill="#FFFF9E" d="M254.162,347.122c-1.33-1.918-0.836-4.058-0.271-6.392
	c0.258,1.584,1.331,3.505,1.937,4.136c0.419,0.495,0.625,1.092,0.569,1.706c-0.006,0.486-0.275,1.074-0.458,1.528
	C254.964,347.385,254.823,347.993,254.162,347.122z"/>
<path id="path2065" sodipodi:nodetypes="ccscc" fill="#FFFF9E" d="M255.656,346.171c1.03-2.067,0.01-3.694,2.371-5.315
	c-0.705,1.503,0.907,3.877,0.732,4.7c-0.295,1.384-2.333,2.414-2.848,2.521C256.035,346.938,255.22,347.154,255.656,346.171z"/>
<path id="path2067" sodipodi:nodetypes="ccc" fill="#FFFF9E" d="M248.302,339.406c5.538,6.414,5.415,3.176,7.611,8.668
	C245.446,343.806,250.143,344.191,248.302,339.406z"/>
</svg>
