<?xml version="1.0" encoding="utf-8"?>
<!-- Generator: Adobe Illustrator 17.0.0, SVG Export Plug-In . SVG Version: 6.00 Build 0)  -->
<!DOCTYPE svg PUBLIC "-//W3C//DTD SVG 1.1//EN" "http://www.w3.org/Graphics/SVG/1.1/DTD/svg11.dtd">
<svg version="1.1" id="Layer_1" xmlns="http://www.w3.org/2000/svg" xmlns:xlink="http://www.w3.org/1999/xlink" x="0px" y="0px"
	 width="230px" height="65px" viewBox="0 0 230 65" enable-background="new 0 0 230 65" xml:space="preserve">
<g>
	<path fill="#0E2340" d="M10.097,14.697c0.212-0.355,0.453-0.743,1.05-1.132c0.473-0.298,1.07-0.477,1.726-0.477
		c0.419,0,1.018,0.088,1.555,0.39c1.282,0.745,1.282,2.148,1.282,2.743v12.055h-1.252V16.252c0-1.582-1.018-2.063-1.851-2.063
		c-0.747,0-1.494,0.361-1.97,0.897c-0.298,0.358-0.416,0.657-0.541,0.986v12.204h-1.25V13.114h1.25v1.583H10.097z"/>
	<path fill="#0E2340" d="M18.963,9.42h1.312v3.816h2.27v1.227h-2.27v11.246c0,0.807,0,1.434,1.107,1.434
		c0.326,0,0.832-0.03,1.163-0.063v1.166c-0.448,0.057-0.897,0.091-1.346,0.091c-1.758,0-2.208-0.628-2.208-1.763V14.462h-1.61
		v-1.227h1.582V9.42z"/>
	<path fill="#0E2340" d="M24.003,16.788c0-2.298,1.227-3.612,3.377-3.612c3.487,0,3.487,2.863,3.487,4.718v3.011H25.26v3.702
		c0,1.938,0.982,2.537,2.208,2.537c0.325,0,1.491,0,1.94-1.256c0.205-0.507,0.205-0.573,0.205-2.722h1.253v1.588
		c0,2.27-1.253,3.55-3.46,3.55c-0.715,0-1.581-0.117-2.357-0.835c-0.836-0.714-1.047-1.581-1.047-2.832L24.003,16.788L24.003,16.788
		z M29.584,17.088c0-0.48,0-2.776-2.148-2.776c-2.177,0-2.177,2.179-2.177,2.895v2.655h4.325V17.088z"/>
	<path fill="#0E2340" d="M34.869,15.891c0.415-0.894,0.983-1.936,3.131-3.01v1.696c-1.194,0.331-2.058,0.661-3.101,3.106v10.594
		h-1.253v-15.01h1.223V15.891z"/>
	<path fill="#0E2340" d="M41.165,14.697c0.208-0.355,0.447-0.743,1.043-1.132c0.477-0.298,1.074-0.477,1.728-0.477
		c0.42,0,1.015,0.088,1.555,0.39c1.283,0.745,1.283,2.148,1.283,2.743v12.055H45.52V16.252c0-1.582-1.014-2.063-1.85-2.063
		c-0.745,0-1.495,0.361-1.969,0.897c-0.299,0.358-0.418,0.657-0.536,0.986v12.204H39.91V13.114h1.255L41.165,14.697L41.165,14.697z"
		/>
	<path fill="#0E2340" d="M49.667,17.894c0-2.3,0-4.718,3.433-4.718c3.042,0,3.042,2.357,3.042,3.282v10.087
		c0,0.51,0.447,0.536,0.896,0.536v1.195c-1.314,0-1.881-0.179-2.149-1.162c-0.657,0.505-1.49,1.162-2.893,1.162
		c-2.119,0-2.956-1.672-2.956-3.522c0-2.864,1.76-3.91,3.315-4.715c1.519-0.805,1.73-0.894,2.506-1.493v-1.727
		c0-1.343-0.149-2.45-1.91-2.45c-1.999,0-1.999,1.521-1.999,3.525L49.667,17.894L49.667,17.894z M54.888,19.951
		c-0.477,0.328-0.597,0.39-1.789,1.046c-1.523,0.865-2.777,1.581-2.777,3.789c0,1.194,0.536,2.296,1.942,2.296
		c1.311,0,2.026-0.773,2.624-1.432L54.888,19.951L54.888,19.951z"/>
	<path fill="#0E2340" d="M59.365,9.42h1.312v3.816h2.267v1.227h-2.267v11.246c0,0.807,0,1.434,1.105,1.434
		c0.328,0,0.832-0.03,1.162-0.063v1.166c-0.448,0.057-0.896,0.091-1.342,0.091c-1.76,0-2.208-0.628-2.208-1.763V14.462h-1.613
		v-1.227h1.583V9.42H59.365z"/>
	<path fill="#0E2340" d="M64.972,9.422h1.25v2.087h-1.25V9.422z M64.972,13.236h1.25v15.041h-1.25V13.236z"/>
	<path fill="#0E2340" d="M68.937,16.788c0-3.013,2.237-3.612,3.581-3.612c3.43,0,3.43,2.777,3.43,3.702v7.129
		c0,1.195-0.088,2.092-0.655,2.927c-0.955,1.405-2.568,1.405-2.894,1.405c-0.269,0-1.132,0-1.999-0.509
		c-1.285-0.716-1.462-1.883-1.462-3.163L68.937,16.788L68.937,16.788z M74.666,17.027c0-0.569,0-2.6-2.118-2.6
		c-2.327,0-2.327,1.973-2.327,2.958v7.251c0,0.506,0,2.477,2.148,2.477c1.223,0,2.298-0.628,2.298-2.598v-7.488H74.666z"/>
	<path fill="#0E2340" d="M80.008,14.697c0.207-0.355,0.446-0.743,1.042-1.132c0.479-0.298,1.074-0.477,1.731-0.477
		c0.419,0,1.014,0.088,1.551,0.39c1.284,0.745,1.284,2.148,1.284,2.743v12.055h-1.254V16.252c0-1.582-1.015-2.063-1.85-2.063
		c-0.744,0-1.493,0.361-1.97,0.897c-0.3,0.358-0.416,0.657-0.535,0.986v12.204h-1.253V13.134h1.253v1.563H80.008z"/>
	<path fill="#0E2340" d="M88.509,17.894c0-2.3,0-4.718,3.434-4.718c3.04,0,3.04,2.357,3.04,3.282v10.087
		c0,0.51,0.51,0.536,0.96,0.536v1.195c-1.315,0-1.945-0.179-2.21-1.162c-0.657,0.505-1.494,1.162-2.896,1.162
		c-2.116,0-2.952-1.672-2.952-3.522c0-2.864,1.758-3.91,3.311-4.715c1.521-0.805,1.733-0.894,2.507-1.493v-1.727
		c0-1.343-0.148-2.45-1.91-2.45c-1.999,0-1.999,1.521-1.999,3.525L88.509,17.894L88.509,17.894z M93.732,19.951
		c-0.477,0.328-0.598,0.39-1.79,1.046c-1.521,0.865-2.776,1.581-2.776,3.789c0,1.194,0.537,2.296,1.939,2.296
		c1.317,0,2.03-0.773,2.627-1.432V19.951z"/>
	<path fill="#0E2340" d="M100.135,7.209v52.596h-1.282V7.209H100.135z"/>
	<path fill="#0E2340" d="M5.475,7.209v21.068H4.193V7.209H5.475z"/>
	<g>
		<path fill="#0E2340" d="M113.439,45.571h-1.507l-1.002-7.605l-1.052,7.605h-1.509l-1.507-9.177h1.131l1.131,8.046l1.079-8.046
			h1.47l1.052,8.046l1.144-8.046h1.118L113.439,45.571z"/>
		<path fill="#0E2340" d="M120.682,43.309c-0.066,1.157-0.352,2.39-2.249,2.39c-0.34,0-0.806-0.024-1.237-0.259
			c-0.649-0.351-0.819-0.988-0.882-1.363c-0.104-0.626-0.091-1.965-0.091-2.781c0-0.587,0.025-2.51,0.063-3.002
			c0.04-0.47,0.223-2.044,2.302-2.044c1.909,0,2.066,1.429,2.12,1.923c0.076,0.781,0.051,2.431,0.051,2.68
			C120.758,41.568,120.717,42.621,120.682,43.309z M117.403,42.711c0.025,0.885-0.129,2.042,1.08,2.042
			c0.974,0,1.014-0.858,1.052-1.458c0.051-0.766,0.079-1.701,0.063-2.442c-0.013-0.718-0.013-1.443-0.023-2.16
			c-0.013-0.572-0.025-1.481-1.055-1.481c-1.037,0-1.077,1-1.103,1.469c-0.028,0.454-0.028,0.598-0.028,2.809
			C117.391,42.113,117.391,42.128,117.403,42.711z"/>
		<path fill="#0E2340" d="M127.763,45.571h-1.207l-1.559-4.015h-0.951v4.015h-1.131v-9.177h2c1.209,0,2.432,0.194,2.432,2.495
			c0,0.691-0.089,1.263-0.221,1.599c-0.261,0.754-0.781,0.872-1.012,0.938L127.763,45.571z M124.046,40.643
			c1.288,0,1.468,0,1.717-0.167c0.441-0.298,0.441-1,0.441-1.458c0-0.556-0.013-1.142-0.456-1.416
			c-0.269-0.167-0.52-0.167-1.701-0.167v3.208H124.046z"/>
		<path fill="#0E2340" d="M134.018,45.571h-1.263l-1.638-4.692l-0.728,1.104v3.588h-1.131v-9.177h1.131v3.952l2.366-3.952h1.263
			l-2.158,3.457L134.018,45.571z"/>
		<path fill="#0E2340" d="M136.475,45.571h-1.133v-9.177h1.133V45.571z"/>
		<path fill="#0E2340" d="M143.09,45.571h-1.613l-1.792-7.957l0.155,7.957h-1.118v-9.188h1.562l1.859,8.045l-0.157-8.045h1.105
			v9.188H143.09z"/>
		<path fill="#0E2340" d="M149.811,45.571h-0.963v-0.638c-0.284,0.285-0.753,0.766-1.686,0.766c-0.418,0-1.278-0.153-1.655-1.064
			c-0.155-0.39-0.256-0.74-0.256-3.316c0-1.39,0.051-2.821,0.089-3.145c0.106-0.884,0.482-1.923,2.211-1.923
			c1.105,0,1.585,0.312,1.871,0.73c0.312,0.439,0.312,0.739,0.312,2.221h-1.078c0-0.61,0-1.052-0.053-1.302
			c-0.079-0.364-0.312-0.687-0.986-0.687c-1.093,0-1.133,0.753-1.174,1.507c-0.023,0.507-0.048,2.419-0.048,3.107
			c0,0.716,0.038,1.156,0.063,1.743c0.013,0.377,0.066,1.183,1.027,1.183c0.34,0,0.677-0.118,0.925-0.365
			c0.205-0.222,0.335-0.441,0.335-1.638v-0.934h-1.351v-0.989h2.419v4.744H149.811z"/>
		<path fill="#0E2340" d="M157.116,45.571h-1.128V37.42h-1.744v-1.026h4.617v1.026h-1.744v8.151H157.116z"/>
		<path fill="#0E2340" d="M164.296,43.309c-0.066,1.157-0.352,2.39-2.251,2.39c-0.335,0-0.806-0.024-1.232-0.259
			c-0.654-0.351-0.821-0.988-0.885-1.363c-0.106-0.626-0.091-1.965-0.091-2.781c0-0.587,0.025-2.51,0.063-3.002
			c0.041-0.47,0.221-2.044,2.302-2.044c1.912,0,2.066,1.429,2.117,1.923c0.079,0.781,0.053,2.431,0.053,2.68
			C164.372,41.568,164.334,42.621,164.296,43.309z M161.018,42.711c0.028,0.885-0.129,2.042,1.08,2.042
			c0.974,0,1.014-0.858,1.052-1.458c0.051-0.766,0.076-1.701,0.066-2.442c-0.015-0.718-0.015-1.443-0.028-2.16
			c-0.01-0.572-0.025-1.481-1.052-1.481c-1.04,0-1.078,1-1.103,1.469c-0.028,0.454-0.028,0.598-0.028,2.809
			C161.005,42.113,161.005,42.128,161.018,42.711z"/>
		<path fill="#0E2340" d="M170.495,45.571h-1.131v-9.188h1.871c1.014,0,1.651,0.063,2.12,0.728c0.413,0.569,0.413,1.118,0.413,2.064
			c0,1.247-0.205,2.145-1.09,2.473c-0.441,0.169-0.702,0.169-2.183,0.169L170.495,45.571L170.495,45.571z M170.495,40.799h0.768
			c0.504,0,0.791-0.025,1.037-0.205c0.34-0.262,0.34-0.626,0.34-1.326c0-0.99-0.038-1.392-0.416-1.638
			c-0.286-0.195-0.545-0.195-1.729-0.195V40.799z"/>
		<path fill="#0E2340" d="M180.282,45.571h-1.207l-1.559-4.015h-0.948v4.015h-1.133v-9.177h2.003c1.209,0,2.432,0.194,2.432,2.495
			c0,0.691-0.091,1.263-0.223,1.599c-0.259,0.754-0.778,0.872-1.012,0.938L180.282,45.571z M176.567,40.643
			c1.285,0,1.468,0,1.714-0.167c0.441-0.298,0.441-1,0.441-1.458c0-0.556-0.013-1.142-0.454-1.416
			c-0.274-0.167-0.52-0.167-1.701-0.167V40.643z"/>
		<path fill="#0E2340" d="M185.91,45.571h-4.133v-9.177h4.031v1.026h-2.885v2.732h2.533v1.04h-2.533v3.353h2.987V45.571z"/>
		<path fill="#0E2340" d="M190.112,45.571h-1.458l-1.714-9.177h1.182l1.263,8.046l1.273-8.046h1.156L190.112,45.571z"/>
		<path fill="#0E2340" d="M197.259,45.571h-4.133v-9.177h4.029v1.026h-2.883v2.732h2.533v1.04h-2.533v3.353h2.987V45.571z"/>
		<path fill="#0E2340" d="M203.318,45.571h-1.615l-1.79-7.957l0.155,7.957h-1.118v-9.188h1.562l1.856,8.045l-0.155-8.045h1.105
			V45.571z"/>
		<path fill="#0E2340" d="M207.36,45.571h-1.131V37.42h-1.742v-1.026h4.614v1.026h-1.742v8.151H207.36z"/>
		<path fill="#0E2340" d="M111.802,55.5c0,1.235-0.013,1.56-0.091,1.912c-0.117,0.534-0.416,1.457-2.068,1.457
			c-1.403,0-1.976-0.832-2.119-1.677c-0.039-0.26-0.09-0.649-0.09-2.939c0-2.416,0.039-2.703,0.104-3.107
			c0.078-0.403,0.312-1.728,2.196-1.728c0.755,0,1.689,0.325,1.924,1.325c0.104,0.441,0.104,0.989,0.091,1.704h-1.066v-0.688
			c0-0.624-0.013-1.379-0.949-1.379c-0.976,0-1.053,0.78-1.092,1.131c-0.078,0.664-0.078,2.055-0.078,2.759
			c0,0.557,0.027,2.415,0.078,2.78c0.039,0.169,0.157,0.859,1.067,0.859c0.818,0,0.936-0.704,0.974-0.874
			c0.053-0.233,0.053-0.44,0.053-1.534h1.066V55.5z"/>
		<path fill="#0E2340" d="M117.976,56.477c-0.066,1.155-0.35,2.391-2.25,2.391c-0.337,0-0.806-0.025-1.235-0.26
			c-0.65-0.35-0.819-0.987-0.884-1.365c-0.105-0.625-0.091-1.963-0.091-2.781c0-0.584,0.027-2.51,0.065-3.003
			c0.04-0.469,0.221-2.041,2.3-2.041c1.912,0,2.066,1.43,2.12,1.923c0.079,0.781,0.053,2.43,0.053,2.679
			C118.055,54.733,118.014,55.785,117.976,56.477z M114.7,55.879c0.027,0.882-0.13,2.04,1.078,2.04c0.977,0,1.015-0.858,1.053-1.458
			c0.053-0.766,0.079-1.7,0.066-2.442c-0.013-0.714-0.013-1.443-0.025-2.16c-0.013-0.569-0.025-1.481-1.055-1.481
			c-1.038,0-1.077,1.002-1.103,1.469c-0.027,0.454-0.027,0.598-0.027,2.808C114.687,55.28,114.687,55.293,114.7,55.879z"/>
		<path fill="#0E2340" d="M124.594,58.739h-1.615l-1.792-7.955l0.157,7.955h-1.118v-9.192h1.559l1.859,8.047l-0.155-8.047h1.105
			L124.594,58.739L124.594,58.739z"/>
		<path fill="#0E2340" d="M127.984,58.739h-1.156v-9.181h4.044v1.031h-2.888v2.703h2.51v1.001h-2.51V58.739z"/>
		<path fill="#0E2340" d="M136.214,58.739h-3.849v-9.181h1.159v8.15h2.69V58.739z"/>
		<path fill="#0E2340" d="M138.762,58.739h-1.131v-9.181h1.131V58.739z"/>
		<path fill="#0E2340" d="M145.288,55.5c0,1.235-0.015,1.56-0.091,1.912c-0.117,0.534-0.416,1.457-2.069,1.457
			c-1.405,0-1.975-0.832-2.117-1.677c-0.041-0.26-0.091-0.649-0.091-2.939c0-2.416,0.038-2.703,0.104-3.107
			c0.079-0.403,0.312-1.728,2.198-1.728c0.753,0,1.689,0.325,1.924,1.325c0.101,0.441,0.101,0.989,0.089,1.704h-1.065v-0.688
			c0-0.624-0.015-1.379-0.948-1.379c-0.976,0-1.055,0.78-1.093,1.131c-0.079,0.664-0.079,2.055-0.079,2.759
			c0,0.557,0.025,2.415,0.079,2.78c0.038,0.169,0.155,0.859,1.065,0.859c0.821,0,0.936-0.704,0.976-0.874
			c0.051-0.233,0.051-0.44,0.051-1.534h1.067V55.5z"/>
		<path fill="#0E2340" d="M148.903,58.739h-1.131v-8.15h-1.742v-1.031h4.614v1.031h-1.742v8.15H148.903z"/>
		<path fill="#0E2340" d="M161.109,58.739H159.6l-0.999-7.605l-1.052,7.605h-1.511l-1.506-9.181h1.131l1.131,8.049l1.08-8.049h1.468
			l1.055,8.049l1.143-8.049h1.118L161.109,58.739z"/>
		<path fill="#0E2340" d="M168.35,56.477c-0.066,1.155-0.35,2.391-2.249,2.391c-0.337,0-0.806-0.025-1.235-0.26
			c-0.652-0.35-0.819-0.987-0.885-1.365c-0.104-0.625-0.091-1.963-0.091-2.781c0-0.584,0.028-2.51,0.066-3.003
			c0.041-0.469,0.221-2.041,2.3-2.041c1.912,0,2.069,1.43,2.12,1.923c0.079,0.781,0.053,2.43,0.053,2.679
			C168.429,54.733,168.391,55.785,168.35,56.477z M165.074,55.879c0.025,0.882-0.132,2.04,1.08,2.04
			c0.974,0,1.012-0.858,1.052-1.458c0.053-0.766,0.076-1.7,0.066-2.442c-0.013-0.714-0.013-1.443-0.028-2.16
			c-0.013-0.569-0.025-1.481-1.052-1.481c-1.042,0-1.08,1.002-1.105,1.469c-0.025,0.454-0.025,0.598-0.025,2.808
			C165.062,55.28,165.062,55.293,165.074,55.879z"/>
		<path fill="#0E2340" d="M175.434,58.739h-1.209l-1.559-4.017h-0.948v4.017h-1.133v-9.181h2.003c1.209,0,2.431,0.198,2.431,2.5
			c0,0.686-0.091,1.259-0.221,1.599c-0.261,0.752-0.778,0.87-1.012,0.934L175.434,58.739z M171.717,53.81
			c1.285,0,1.468,0,1.716-0.169c0.441-0.298,0.441-1,0.441-1.454c0-0.562-0.013-1.145-0.456-1.418
			c-0.271-0.169-0.517-0.169-1.701-0.169L171.717,53.81L171.717,53.81z"/>
		<path fill="#0E2340" d="M180.776,58.739h-3.846v-9.181h1.154v8.15h2.693L180.776,58.739L180.776,58.739z"/>
		<path fill="#0E2340" d="M182.193,58.739v-9.181h1.729c0.898,0,1.717,0,2.264,0.691c0.426,0.535,0.467,1.015,0.467,3.236
			c0,0.496,0,1.08-0.025,2.328c-0.015,0.898-0.041,1.548-0.365,2.094c-0.52,0.832-1.377,0.832-2.365,0.832H182.193z M183.339,57.723
			h0.74c0.728,0,1.247-0.063,1.377-0.884c0.066-0.429,0.079-1.715,0.079-2.196c0-0.846,0-1.171-0.013-2.056
			c-0.013-0.999-0.028-1.495-0.431-1.78c-0.284-0.195-0.543-0.195-1.752-0.195V57.723z"/>
		<path fill="#0E2340" d="M194.465,58.739h-1.509l-1.001-7.605l-1.052,7.605h-1.509l-1.506-9.181h1.131l1.131,8.049l1.078-8.049
			h1.468l1.055,8.049l1.144-8.049h1.118L194.465,58.739z"/>
		<path fill="#0E2340" d="M198.456,58.739h-1.131v-9.181h1.131V58.739z"/>
		<path fill="#0E2340" d="M200.689,58.739v-9.181h1.732c0.898,0,1.714,0,2.262,0.691c0.428,0.535,0.467,1.015,0.467,3.236
			c0,0.496,0,1.08-0.025,2.328c-0.013,0.898-0.038,1.548-0.363,2.094c-0.522,0.832-1.379,0.832-2.368,0.832H200.689z
			 M201.835,57.723h0.74c0.728,0,1.247-0.063,1.377-0.884c0.066-0.429,0.081-1.715,0.081-2.196c0-0.846,0-1.171-0.015-2.056
			c-0.013-0.999-0.023-1.495-0.429-1.78c-0.286-0.195-0.545-0.195-1.755-0.195v7.111H201.835z"/>
		<path fill="#0E2340" d="M211.442,58.739h-4.135v-9.181h4.031v1.031h-2.888v2.728h2.535v1.041h-2.535v3.351h2.992V58.739z"/>
	</g>
	<path fill="#0E2340" d="M114.62,14.915v-2.686c0-1.583-0.27-2.477-1.97-2.477c-1.699,0-1.791,1.34-1.791,2.3V23.33
		c0,1.253,0.212,2.386,1.941,2.386c1.82,0,1.82-1.311,1.82-2.597v-2.741h3.848v2.981c0,1.701,0,5.37-5.729,5.37
		c-1.103,0-2.866-0.205-4.088-1.012c-1.671-1.105-1.671-2.746-1.671-3.911V12.348c0-1.701,0.089-2.862,1.044-3.908
		c1.521-1.642,3.909-1.671,4.715-1.671c5.729,0,5.729,3.401,5.729,4.892v3.255h-3.848V14.915z"/>
	<path fill="#0E2340" d="M120.618,13.004h3.55l-0.031,1.94c0.598-1.074,1.402-2.268,3.494-2.21v3.525
		c-0.269-0.094-0.626-0.242-1.194-0.242c-2.3,0-2.3,2.091-2.3,3.283v8.982h-3.519L120.618,13.004L120.618,13.004z"/>
	<path fill="#0E2340" d="M129.069,7.186h3.552v3.611h-3.552V7.186z M129.069,13.004h3.583v15.278h-3.583V13.004z"/>
	<path fill="#0E2340" d="M134.769,22.91h3.281c0,2.21,0,3.134,1.405,3.134c0.773,0,1.369-0.355,1.369-1.671
		c0-0.892-0.056-1.312-1.039-1.998l-2.956-2.089c-0.21-0.15-0.745-0.657-0.986-0.958c-0.388-0.443-0.834-1.072-0.834-2.712
		c0-3.223,2.087-3.94,4.597-3.94c3.103,0,4.356,1.343,4.356,3.523v1.67h-3.076c0-1.733,0-2.746-1.28-2.746
		c-0.51,0-1.255,0.088-1.255,1.372c0,0.418,0.028,0.984,1.017,1.671l3.248,2.298c0.211,0.151,0.867,0.804,0.989,1.014
		c0.416,0.598,0.507,1.403,0.507,2.388c0,1.941,0,4.717-4.713,4.717c-3.826,0-4.627-1.94-4.627-4.062V22.91H134.769z"/>
	<rect x="146.467" y="13.004" fill="#0E2340" width="3.575" height="15.278"/>
	<path fill="#0E2340" d="M152.164,22.91h3.281c0,2.21,0,3.134,1.402,3.134c0.776,0,1.377-0.355,1.377-1.671
		c0-0.892-0.063-1.312-1.045-1.998l-2.959-2.089c-0.205-0.15-0.745-0.657-0.981-0.958c-0.39-0.443-0.839-1.072-0.839-2.712
		c0-3.223,2.092-3.94,4.597-3.94c3.103,0,4.358,1.343,4.358,3.523v1.67h-3.075c0-1.733,0-2.746-1.283-2.746
		c-0.51,0-1.255,0.088-1.255,1.372c0,0.418,0.033,0.984,1.014,1.671l3.255,2.298c0.208,0.151,0.867,0.804,0.984,1.014
		c0.421,0.598,0.51,1.403,0.51,2.388c0,1.941,0,4.717-4.718,4.717c-3.818,0-4.622-1.94-4.622-4.062V22.91H152.164z"/>
	<path fill="#0E2340" d="M176.245,14.018v-2c0-1.043,0-2.207-1.818-2.207c-1.97,0-1.97,1.583-1.97,2.718v11.098
		c0,1.402,0.477,2.121,1.851,2.121c1.937,0,1.937-1.435,1.937-2.45v-3.283h-2.414v-3.162h6.295v11.429h-3.311V27.03
		c-0.571,0.626-1.493,1.698-3.732,1.698c-1.881,0-4.564-0.804-4.564-4.294V12.436c0-2.118,0.177-5.668,5.994-5.668
		c0.961,0,2.779,0.147,4.034,0.953c1.192,0.776,1.58,1.912,1.58,3.226v3.071H176.245z"/>
	<path fill="#0E2340" d="M182.81,13.004h3.552l-0.03,1.94c0.598-1.074,1.405-2.268,3.494-2.21v3.525
		c-0.271-0.094-0.629-0.242-1.194-0.242c-2.3,0-2.3,2.091-2.3,3.283v8.982h-3.522V13.004z"/>
	<path fill="#0E2340" d="M190.758,17.124c0-1.853,0.626-4.417,4.83-4.417c1.075,0,2.33,0.238,3.223,0.836
		c1.285,0.892,1.496,2.21,1.496,3.432v7.338c0,2.747-1.729,4.27-4.896,4.27c-4.652,0-4.652-3.493-4.652-4.629L190.758,17.124
		L190.758,17.124z M194.308,24.554c0,0.387,0,1.581,1.222,1.581c1.255,0,1.255-1.045,1.255-1.613v-7.755
		c0-0.87-0.122-1.852-1.197-1.852c-1.28,0-1.28,1.164-1.28,1.879V24.554z"/>
	<path fill="#0E2340" d="M202.751,13.004h3.552v11.011c0,0.746,0,1.819,1.311,1.819c1.374,0,1.374-1.22,1.374-2.029V13.004h3.578
		v15.278h-3.578V27.06c-0.778,0.626-1.729,1.491-3.283,1.491c-0.986,0-2.533-0.446-2.865-2.357c-0.089-0.479-0.089-0.81-0.089-1.673
		L202.751,13.004L202.751,13.004z"/>
	<path fill="#0E2340" d="M218.714,35.797v-8.796c0.925,0.775,1.823,1.582,3.316,1.582c1.103,0,2.087-0.478,2.624-1.463
		c0.238-0.39,0.507-1.134,0.507-2.3v-8.085c0-1.282-0.241-2.3-0.87-3.012c-0.593-0.628-1.427-1.016-2.355-1.016
		c-1.521,0-2.594,0.924-3.222,1.463v-1.166h-3.519v22.793L218.714,35.797L218.714,35.797z M218.747,17.124
		c0-0.45,0-1.762,1.46-1.762c0.956,0,1.405,0.625,1.405,1.671v7.073c0,0.593-0.152,1.582-1.432,1.582
		c-1.078,0-1.432-0.688-1.432-1.701L218.747,17.124L218.747,17.124z"/>
	<polygon fill="#0E2340" points="148.27,8.035 146.492,7.186 147.311,8.992 146.492,10.797 148.27,9.947 150.042,10.797 
		149.223,8.993 150.042,7.186 	"/>
</g>
</svg>
