<?xml version="1.0" encoding="utf-8"?>
<!-- Generator: Adobe Illustrator 17.0.0, SVG Export Plug-In . SVG Version: 6.00 Build 0)  -->
<!DOCTYPE svg PUBLIC "-//W3C//DTD SVG 1.1//EN" "http://www.w3.org/Graphics/SVG/1.1/DTD/svg11.dtd">
<svg version="1.1" id="Layer_1" xmlns="http://www.w3.org/2000/svg" xmlns:xlink="http://www.w3.org/1999/xlink" x="0px" y="0px"
	 width="340px" height="85px" viewBox="0 0 340 85" enable-background="new 0 0 340 85" xml:space="preserve">
<path fill="#FFFFFF" d="M11.352,13.532c0.32-0.535,0.683-1.119,1.583-1.706c0.713-0.449,1.612-0.719,2.601-0.719
	c0.631,0,1.534,0.133,2.344,0.588c1.932,1.122,1.932,3.236,1.932,4.134v18.166h-1.887V15.877c0-2.383-1.534-3.109-2.789-3.109
	c-1.125,0-2.251,0.544-2.969,1.351c-0.449,0.539-0.628,0.991-0.815,1.486v18.389H9.468V11.147h1.884V13.532z"/>
<path fill="#FFFFFF" d="M24.711,5.58h1.977v5.751h3.42v1.849h-3.42v16.947c0,1.216,0,2.161,1.668,2.161
	c0.491,0,1.253-0.045,1.753-0.094v1.757c-0.675,0.086-1.351,0.138-2.028,0.138c-2.649,0-3.327-0.946-3.327-2.657V13.18h-2.426
	v-1.849h2.383V5.58z"/>
<path fill="#FFFFFF" d="M32.305,16.682c0-3.462,1.849-5.442,5.088-5.442c5.255,0,5.255,4.314,5.255,7.11v4.537h-8.449v5.579
	c0,2.92,1.479,3.822,3.328,3.822c0.49,0,2.247,0,2.924-1.892c0.309-0.764,0.309-0.863,0.309-4.101h1.888v2.393
	c0,3.42-1.888,5.35-5.214,5.35c-1.077,0-2.382-0.177-3.552-1.259c-1.26-1.076-1.577-2.382-1.577-4.267V16.682z M40.716,17.135
	c0-0.723,0-4.183-3.237-4.183c-3.28,0-3.28,3.284-3.28,4.362v4.001h6.517V17.135z"/>
<path fill="#FFFFFF" d="M48.679,15.331c0.626-1.347,1.481-2.918,4.718-4.535v2.556c-1.798,0.499-3.101,0.996-4.673,4.68v15.963
	h-1.888V11.377h1.843V15.331z"/>
<path fill="#FFFFFF" d="M58.166,13.532c0.313-0.535,0.673-1.119,1.572-1.706c0.718-0.449,1.619-0.719,2.604-0.719
	c0.632,0,1.53,0.133,2.343,0.588c1.933,1.122,1.933,3.236,1.933,4.134v18.166h-1.889V15.877c0-2.383-1.528-3.109-2.787-3.109
	c-1.123,0-2.252,0.544-2.968,1.351c-0.45,0.539-0.629,0.991-0.808,1.486v18.389h-1.891V11.147h1.891V13.532z"/>
<path fill="#FFFFFF" d="M70.977,18.35c0-3.465,0-7.11,5.173-7.11c4.585,0,4.585,3.552,4.585,4.946v15.2
	c0,0.768,0.673,0.808,1.35,0.808v1.801c-1.98,0-2.834-0.27-3.239-1.752c-0.99,0.761-2.245,1.752-4.359,1.752
	c-3.193,0-4.454-2.52-4.454-5.308c0-4.315,2.651-5.891,4.995-7.104c2.289-1.213,2.607-1.348,3.775-2.25V16.73
	c0-2.023-0.224-3.692-2.879-3.692c-3.012,0-3.012,2.292-3.012,5.311H70.977z M78.846,21.448c-0.718,0.494-0.9,0.588-2.695,1.576
	c-2.295,1.303-4.185,2.382-4.185,5.71c0,1.799,0.808,3.46,2.927,3.46c1.976,0,3.053-1.165,3.953-2.159V21.448z"/>
<path fill="#FFFFFF" d="M85.592,5.58h1.976v5.751h3.417v1.849h-3.417v16.947c0,1.216,0,2.161,1.666,2.161
	c0.494,0,1.254-0.045,1.751-0.094v1.757c-0.674,0.086-1.35,0.138-2.022,0.138c-2.651,0-3.327-0.946-3.327-2.657V13.18h-2.43v-1.849
	h2.386V5.58z"/>
<path fill="#FFFFFF" d="M94.041,5.583h1.884v3.145h-1.884V5.583z M94.041,11.331h1.884v22.664h-1.884V11.331z"/>
<path fill="#FFFFFF" d="M100.015,16.682c0-4.541,3.371-5.442,5.396-5.442c5.168,0,5.168,4.184,5.168,5.579v10.742
	c0,1.8-0.133,3.152-0.988,4.41c-1.439,2.117-3.869,2.117-4.361,2.117c-0.405,0-1.706,0-3.013-0.767
	c-1.936-1.078-2.202-2.837-2.202-4.766V16.682z M108.648,17.043c0-0.858,0-3.917-3.192-3.917c-3.507,0-3.507,2.972-3.507,4.458
	V28.51c0,0.763,0,3.733,3.237,3.733c1.843,0,3.463-0.947,3.463-3.914V17.043z"/>
<path fill="#FFFFFF" d="M116.697,13.532c0.311-0.535,0.672-1.119,1.57-1.706c0.722-0.449,1.618-0.719,2.608-0.719
	c0.631,0,1.527,0.133,2.337,0.588c1.935,1.122,1.935,3.236,1.935,4.134v18.166h-1.889V15.877c0-2.383-1.529-3.109-2.787-3.109
	c-1.121,0-2.249,0.544-2.969,1.351c-0.452,0.539-0.628,0.991-0.806,1.486v18.389h-1.887V11.178h1.887V13.532z"/>
<path fill="#FFFFFF" d="M129.507,18.35c0-3.465,0-7.11,5.174-7.11c4.582,0,4.582,3.552,4.582,4.946v15.2
	c0,0.768,0.768,0.808,1.446,0.808v1.801c-1.981,0-2.93-0.27-3.33-1.752c-0.991,0.761-2.251,1.752-4.364,1.752
	c-3.189,0-4.448-2.52-4.448-5.308c0-4.315,2.65-5.891,4.989-7.104c2.291-1.213,2.611-1.348,3.778-2.25V16.73
	c0-2.023-0.223-3.692-2.879-3.692c-3.012,0-3.012,2.292-3.012,5.311H129.507z M137.378,21.448c-0.718,0.494-0.901,0.588-2.697,1.576
	c-2.292,1.303-4.184,2.382-4.184,5.71c0,1.799,0.81,3.46,2.922,3.46c1.984,0,3.058-1.165,3.959-2.159V21.448z"/>
<path fill="#FFFFFF" d="M147.026,2.248v79.255h-1.932V2.248H147.026z"/>
<path fill="#FFFFFF" d="M4.387,2.248v31.747H2.455V2.248H4.387z"/>
<path fill="#FFFFFF" d="M167.074,60.054h-2.271l-1.51-11.46l-1.585,11.46h-2.273l-2.271-13.828h1.704l1.704,12.125l1.626-12.125
	h2.215l1.585,12.125l1.724-12.125h1.685L167.074,60.054z"/>
<path fill="#FFFFFF" d="M177.987,56.647c-0.099,1.744-0.531,3.601-3.389,3.601c-0.512,0-1.215-0.036-1.864-0.39
	c-0.978-0.529-1.234-1.488-1.33-2.054c-0.157-0.944-0.138-2.961-0.138-4.191c0-0.885,0.038-3.782,0.095-4.523
	c0.061-0.709,0.336-3.079,3.469-3.079c2.877,0,3.114,2.153,3.194,2.898c0.115,1.177,0.076,3.664,0.076,4.038
	C178.102,54.022,178.041,55.609,177.987,56.647z M173.047,55.745c0.038,1.333-0.195,3.078,1.628,3.078
	c1.467,0,1.528-1.293,1.585-2.197c0.076-1.154,0.118-2.563,0.095-3.679c-0.019-1.081-0.019-2.174-0.034-3.255
	c-0.019-0.861-0.038-2.231-1.589-2.231c-1.563,0-1.624,1.507-1.662,2.214c-0.042,0.684-0.042,0.902-0.042,4.233
	C173.028,54.843,173.028,54.866,173.047,55.745z"/>
<path fill="#FFFFFF" d="M188.658,60.054h-1.819l-2.35-6.05h-1.433v6.05h-1.704V46.226h3.014c1.822,0,3.664,0.292,3.664,3.759
	c0,1.041-0.134,1.903-0.332,2.409c-0.394,1.137-1.177,1.314-1.524,1.414L188.658,60.054z M183.057,52.629
	c1.941,0,2.212,0,2.587-0.252c0.665-0.449,0.665-1.507,0.665-2.197c0-0.839-0.019-1.721-0.688-2.134
	c-0.405-0.252-0.783-0.252-2.564-0.252V52.629z"/>
<path fill="#FFFFFF" d="M198.083,60.054h-1.903l-2.468-7.07l-1.097,1.664v5.406h-1.704V46.226h1.704v5.954l3.565-5.954h1.903
	l-3.251,5.209L198.083,60.054z"/>
<path fill="#FFFFFF" d="M201.785,60.054h-1.708V46.226h1.708V60.054z"/>
<path fill="#FFFFFF" d="M211.753,60.054h-2.43l-2.701-11.991l0.233,11.991h-1.685V46.209h2.353l2.801,12.123l-0.237-12.123h1.666
	V60.054z"/>
<path fill="#FFFFFF" d="M221.881,60.054h-1.452v-0.961c-0.428,0.43-1.135,1.154-2.541,1.154c-0.63,0-1.925-0.231-2.495-1.603
	c-0.233-0.588-0.386-1.116-0.386-4.997c0-2.094,0.076-4.25,0.134-4.739c0.16-1.332,0.726-2.898,3.331-2.898
	c1.666,0,2.388,0.47,2.82,1.1c0.47,0.661,0.47,1.114,0.47,3.347h-1.624c0-0.919,0-1.586-0.08-1.962
	c-0.118-0.548-0.47-1.035-1.486-1.035c-1.647,0-1.708,1.135-1.769,2.271c-0.034,0.764-0.073,3.645-0.073,4.682
	c0,1.079,0.057,1.742,0.095,2.626c0.019,0.567,0.099,1.782,1.547,1.782c0.512,0,1.02-0.178,1.395-0.55
	c0.309-0.334,0.504-0.665,0.504-2.468v-1.408h-2.036v-1.49h3.645V60.054z"/>
<path fill="#FFFFFF" d="M232.888,60.054h-1.7V47.771h-2.629v-1.545h6.957v1.545h-2.629V60.054z"/>
<path fill="#FFFFFF" d="M243.708,56.647c-0.099,1.744-0.531,3.601-3.393,3.601c-0.504,0-1.215-0.036-1.857-0.39
	c-0.986-0.529-1.238-1.488-1.333-2.054c-0.16-0.944-0.138-2.961-0.138-4.191c0-0.885,0.038-3.782,0.095-4.523
	c0.061-0.709,0.333-3.079,3.469-3.079c2.881,0,3.114,2.153,3.19,2.898c0.119,1.177,0.08,3.664,0.08,4.038
	C243.822,54.022,243.765,55.609,243.708,56.647z M238.768,55.745c0.042,1.333-0.195,3.078,1.627,3.078
	c1.467,0,1.528-1.293,1.586-2.197c0.076-1.154,0.114-2.563,0.099-3.679c-0.023-1.081-0.023-2.174-0.042-3.255
	c-0.015-0.861-0.038-2.231-1.586-2.231c-1.566,0-1.624,1.507-1.662,2.214c-0.042,0.684-0.042,0.902-0.042,4.233
	C238.748,54.843,238.748,54.866,238.768,55.745z"/>
<path fill="#FFFFFF" d="M253.049,60.054h-1.704V46.209h2.82c1.528,0,2.487,0.095,3.194,1.097c0.623,0.858,0.623,1.685,0.623,3.11
	c0,1.88-0.309,3.232-1.643,3.727c-0.665,0.254-1.058,0.254-3.289,0.254V60.054z M253.049,52.864h1.158
	c0.76,0,1.192-0.038,1.563-0.309c0.512-0.396,0.512-0.944,0.512-1.998c0-1.492-0.057-2.098-0.627-2.468
	c-0.432-0.294-0.821-0.294-2.606-0.294V52.864z"/>
<path fill="#FFFFFF" d="M267.796,60.054h-1.819l-2.349-6.05h-1.429v6.05h-1.708V46.226h3.018c1.822,0,3.664,0.292,3.664,3.759
	c0,1.041-0.138,1.903-0.336,2.409c-0.39,1.137-1.173,1.314-1.524,1.414L267.796,60.054z M262.199,52.629
	c1.937,0,2.212,0,2.583-0.252c0.665-0.449,0.665-1.507,0.665-2.197c0-0.839-0.019-1.721-0.684-2.134
	c-0.413-0.252-0.783-0.252-2.563-0.252V52.629z"/>
<path fill="#FFFFFF" d="M276.277,60.054h-6.227V46.226h6.074v1.545h-4.348v4.117h3.817v1.566h-3.817v5.053h4.501V60.054z"/>
<path fill="#FFFFFF" d="M282.608,60.054h-2.197l-2.583-13.828h1.78l1.902,12.125l1.918-12.125h1.742L282.608,60.054z"/>
<path fill="#FFFFFF" d="M293.378,60.054h-6.227V46.226h6.071v1.545h-4.344v4.117h3.817v1.566h-3.817v5.053h4.5V60.054z"/>
<path fill="#FFFFFF" d="M302.509,60.054h-2.434l-2.697-11.991l0.233,11.991h-1.685V46.209h2.353l2.797,12.123l-0.233-12.123h1.666
	V60.054z"/>
<path fill="#FFFFFF" d="M308.599,60.054h-1.704V47.771h-2.625v-1.545h6.953v1.545h-2.625V60.054z"/>
<path fill="#FFFFFF" d="M164.606,75.016c0,1.861-0.019,2.351-0.137,2.881c-0.176,0.804-0.627,2.195-3.116,2.195
	c-2.115,0-2.977-1.253-3.193-2.527c-0.058-0.392-0.136-0.978-0.136-4.428c0-3.641,0.059-4.073,0.157-4.682
	c0.118-0.608,0.47-2.604,3.31-2.604c1.137,0,2.545,0.489,2.9,1.996c0.157,0.665,0.157,1.49,0.137,2.567h-1.607v-1.037
	c0-0.94-0.019-2.078-1.43-2.078c-1.47,0-1.586,1.175-1.646,1.704c-0.118,1.001-0.118,3.097-0.118,4.157
	c0,0.839,0.04,3.639,0.118,4.189c0.059,0.254,0.236,1.295,1.608,1.295c1.233,0,1.41-1.06,1.468-1.316
	C163,76.975,163,76.664,163,75.016H164.606z"/>
<path fill="#FFFFFF" d="M173.911,76.488c-0.099,1.74-0.527,3.603-3.39,3.603c-0.508,0-1.214-0.038-1.861-0.392
	c-0.98-0.527-1.234-1.488-1.331-2.057c-0.159-0.942-0.138-2.957-0.138-4.191c0-0.881,0.04-3.782,0.097-4.525
	c0.06-0.707,0.332-3.076,3.466-3.076c2.881,0,3.114,2.155,3.194,2.898c0.118,1.177,0.08,3.662,0.08,4.036
	C174.029,73.86,173.968,75.445,173.911,76.488z M168.974,75.587c0.04,1.33-0.196,3.074,1.624,3.074c1.472,0,1.529-1.293,1.586-2.197
	c0.08-1.154,0.119-2.562,0.099-3.679c-0.019-1.075-0.019-2.174-0.038-3.255c-0.019-0.858-0.038-2.231-1.589-2.231
	c-1.564,0-1.623,1.509-1.662,2.214c-0.04,0.684-0.04,0.902-0.04,4.231C168.953,74.685,168.953,74.704,168.974,75.587z"/>
<path fill="#FFFFFF" d="M183.882,79.896h-2.434l-2.701-11.987l0.237,11.987h-1.685V66.045h2.35l2.801,12.126l-0.233-12.126h1.666
	V79.896z"/>
<path fill="#FFFFFF" d="M188.99,79.896h-1.742V66.062h6.094v1.553h-4.352v4.073h3.782v1.509h-3.782V79.896z"/>
<path fill="#FFFFFF" d="M201.392,79.896h-5.8V66.062h1.746v12.281h4.054V79.896z"/>
<path fill="#FFFFFF" d="M205.231,79.896h-1.704V66.062h1.704V79.896z"/>
<path fill="#FFFFFF" d="M215.065,75.016c0,1.861-0.023,2.351-0.138,2.881c-0.176,0.804-0.627,2.195-3.118,2.195
	c-2.117,0-2.976-1.253-3.19-2.527c-0.061-0.392-0.138-0.978-0.138-4.428c0-3.641,0.057-4.073,0.156-4.682
	c0.119-0.608,0.47-2.604,3.312-2.604c1.135,0,2.544,0.489,2.9,1.996c0.153,0.665,0.153,1.49,0.134,2.567h-1.605v-1.037
	c0-0.94-0.023-2.078-1.429-2.078c-1.471,0-1.589,1.175-1.647,1.704c-0.119,1.001-0.119,3.097-0.119,4.157
	c0,0.839,0.038,3.639,0.119,4.189c0.057,0.254,0.233,1.295,1.605,1.295c1.238,0,1.41-1.06,1.471-1.316
	c0.076-0.352,0.076-0.663,0.076-2.311H215.065z"/>
<path fill="#FFFFFF" d="M220.513,79.896h-1.704V67.615h-2.625v-1.553h6.953v1.553h-2.625V79.896z"/>
<path fill="#FFFFFF" d="M238.905,79.896h-2.273l-1.505-11.46l-1.585,11.46h-2.277l-2.269-13.834h1.704l1.704,12.128l1.627-12.128
	h2.212l1.589,12.128l1.723-12.128h1.685L238.905,79.896z"/>
<path fill="#FFFFFF" d="M249.816,76.488c-0.099,1.74-0.527,3.603-3.389,3.603c-0.508,0-1.215-0.038-1.861-0.392
	c-0.982-0.527-1.234-1.488-1.333-2.057c-0.157-0.942-0.138-2.957-0.138-4.191c0-0.881,0.042-3.782,0.099-4.525
	c0.061-0.707,0.333-3.076,3.465-3.076c2.881,0,3.118,2.155,3.194,2.898c0.119,1.177,0.08,3.662,0.08,4.036
	C249.935,73.86,249.878,75.445,249.816,76.488z M244.88,75.587c0.038,1.33-0.199,3.074,1.627,3.074c1.467,0,1.524-1.293,1.586-2.197
	c0.08-1.154,0.114-2.562,0.099-3.679c-0.019-1.075-0.019-2.174-0.042-3.255c-0.019-0.858-0.038-2.231-1.586-2.231
	c-1.57,0-1.627,1.509-1.666,2.214c-0.038,0.684-0.038,0.902-0.038,4.231C244.861,74.685,244.861,74.704,244.88,75.587z"/>
<path fill="#FFFFFF" d="M260.491,79.896h-1.822l-2.35-6.054h-1.429v6.054h-1.708V66.062h3.018c1.822,0,3.664,0.298,3.664,3.767
	c0,1.033-0.138,1.897-0.332,2.409c-0.394,1.133-1.173,1.31-1.524,1.408L260.491,79.896z M254.89,72.469c1.937,0,2.212,0,2.586-0.254
	c0.665-0.449,0.665-1.507,0.665-2.191c0-0.846-0.019-1.725-0.688-2.137c-0.409-0.254-0.779-0.254-2.563-0.254V72.469z"/>
<path fill="#FFFFFF" d="M268.541,79.896h-5.796V66.062h1.738v12.281h4.057V79.896z"/>
<path fill="#FFFFFF" d="M270.677,79.896V66.062h2.606c1.352,0,2.587,0,3.412,1.041c0.642,0.806,0.703,1.53,0.703,4.877
	c0,0.747,0,1.628-0.038,3.507c-0.023,1.352-0.061,2.332-0.55,3.156c-0.783,1.253-2.074,1.253-3.564,1.253H270.677z M272.403,78.366
	h1.116c1.096,0,1.88-0.096,2.074-1.332c0.099-0.646,0.119-2.585,0.119-3.309c0-1.274,0-1.765-0.019-3.098
	c-0.019-1.505-0.042-2.252-0.649-2.682c-0.428-0.294-0.818-0.294-2.64-0.294V78.366z"/>
<path fill="#FFFFFF" d="M289.168,79.896h-2.273l-1.509-11.46l-1.585,11.46h-2.273l-2.269-13.834h1.704l1.704,12.128l1.624-12.128
	h2.212l1.589,12.128l1.723-12.128h1.685L289.168,79.896z"/>
<path fill="#FFFFFF" d="M295.181,79.896h-1.704V66.062h1.704V79.896z"/>
<path fill="#FFFFFF" d="M298.547,79.896V66.062h2.609c1.352,0,2.583,0,3.408,1.041c0.646,0.806,0.703,1.53,0.703,4.877
	c0,0.747,0,1.628-0.038,3.507c-0.019,1.352-0.057,2.332-0.546,3.156c-0.787,1.253-2.078,1.253-3.568,1.253H298.547z M300.274,78.366
	h1.116c1.097,0,1.88-0.096,2.075-1.332c0.099-0.646,0.122-2.585,0.122-3.309c0-1.274,0-1.765-0.023-3.098
	c-0.019-1.505-0.034-2.252-0.646-2.682c-0.432-0.294-0.821-0.294-2.644-0.294V78.366z"/>
<path fill="#FFFFFF" d="M314.75,79.896h-6.231V66.062h6.074v1.553h-4.352v4.111h3.821v1.568h-3.821v5.049h4.508V79.896z"/>
<g>
	<path fill="#FFC627" d="M168.853,13.861V9.813c0-2.385-0.407-3.733-2.969-3.733c-2.561,0-2.699,2.019-2.699,3.465V26.54
		c0,1.887,0.319,3.595,2.926,3.595c2.742,0,2.742-1.976,2.742-3.913v-4.131h5.798v4.492c0,2.563,0,8.092-8.632,8.092
		c-1.662,0-4.319-0.309-6.16-1.525c-2.519-1.665-2.519-4.139-2.519-5.894V9.99c0-2.563,0.134-4.312,1.573-5.888
		c2.292-2.474,5.89-2.518,7.105-2.518c8.632,0,8.632,5.124,8.632,7.372v4.905H168.853z"/>
	<path fill="#FFC627" d="M177.892,10.98h5.349l-0.046,2.924c0.902-1.619,2.113-3.418,5.265-3.33v5.312
		c-0.405-0.141-0.944-0.365-1.799-0.365c-3.465,0-3.465,3.15-3.465,4.948v13.534h-5.303V10.98z"/>
	<path fill="#FFC627" d="M190.625,2.214h5.353v5.441h-5.353V2.214z M190.625,10.98h5.398v23.022h-5.398V10.98z"/>
	<path fill="#FFC627" d="M199.214,25.908h4.944c0,3.33,0,4.722,2.117,4.722c1.165,0,2.063-0.535,2.063-2.519
		c0-1.345-0.084-1.977-1.566-3.011l-4.455-3.148c-0.317-0.226-1.123-0.99-1.486-1.443c-0.584-0.668-1.257-1.615-1.257-4.086
		c0-4.856,3.144-5.937,6.927-5.937c4.676,0,6.564,2.023,6.564,5.309v2.517h-4.634c0-2.611,0-4.138-1.929-4.138
		c-0.768,0-1.891,0.133-1.891,2.068c0,0.629,0.042,1.482,1.532,2.518l4.894,3.463c0.317,0.227,1.307,1.212,1.49,1.527
		c0.627,0.901,0.764,2.114,0.764,3.598c0,2.925,0,7.108-7.102,7.108c-5.765,0-6.972-2.924-6.972-6.12V25.908z"/>
	<rect x="216.842" y="10.98" fill="#FFC627" width="5.387" height="23.022"/>
	<path fill="#FFC627" d="M225.426,25.908h4.944c0,3.33,0,4.722,2.113,4.722c1.169,0,2.074-0.535,2.074-2.519
		c0-1.345-0.095-1.977-1.574-3.011l-4.459-3.148c-0.309-0.226-1.123-0.99-1.478-1.443c-0.588-0.668-1.265-1.615-1.265-4.086
		c0-4.856,3.152-5.937,6.927-5.937c4.676,0,6.567,2.023,6.567,5.309v2.517h-4.634c0-2.611,0-4.138-1.933-4.138
		c-0.768,0-1.891,0.133-1.891,2.068c0,0.629,0.05,1.482,1.528,2.518l4.906,3.463c0.313,0.227,1.307,1.212,1.482,1.527
		c0.634,0.901,0.768,2.114,0.768,3.598c0,2.925,0,7.108-7.11,7.108c-5.754,0-6.965-2.924-6.965-6.12V25.908z"/>
	<path fill="#FFC627" d="M261.714,12.509V9.495c0-1.571,0-3.326-2.739-3.326c-2.969,0-2.969,2.386-2.969,4.095v16.723
		c0,2.113,0.718,3.196,2.789,3.196c2.919,0,2.919-2.162,2.919-3.692v-4.947h-3.637V16.78h9.486v17.222h-4.99v-1.886
		c-0.86,0.943-2.25,2.559-5.624,2.559c-2.835,0-6.877-1.211-6.877-6.471V10.125c0-3.191,0.267-8.541,9.032-8.541
		c1.448,0,4.187,0.222,6.078,1.437c1.796,1.17,2.38,2.881,2.38,4.861v4.628H261.714z"/>
	<path fill="#FFC627" d="M271.605,10.98h5.352l-0.046,2.924c0.902-1.619,2.116-3.418,5.265-3.33v5.312
		c-0.409-0.141-0.948-0.365-1.799-0.365c-3.465,0-3.465,3.15-3.465,4.948v13.534h-5.307V10.98z"/>
	<path fill="#FFC627" d="M283.582,17.188c0-2.792,0.944-6.656,7.278-6.656c1.62,0,3.511,0.358,4.856,1.26
		c1.937,1.344,2.254,3.329,2.254,5.172v11.058c0,4.14-2.606,6.435-7.377,6.435c-7.011,0-7.011-5.264-7.011-6.975V17.188z
		 M288.931,28.384c0,0.583,0,2.382,1.841,2.382c1.891,0,1.891-1.574,1.891-2.431V16.651c0-1.311-0.183-2.79-1.803-2.79
		c-1.929,0-1.929,1.754-1.929,2.831V28.384z"/>
	<path fill="#FFC627" d="M301.653,10.98h5.353v16.592c0,1.124,0,2.74,1.975,2.74c2.071,0,2.071-1.838,2.071-3.057V10.98h5.391
		v23.022h-5.391v-1.841c-1.173,0.943-2.606,2.247-4.948,2.247c-1.486,0-3.817-0.672-4.317-3.551
		c-0.134-0.722-0.134-1.22-0.134-2.522V10.98z"/>
	<path fill="#FFC627" d="M325.707,45.326V32.072c1.395,1.168,2.747,2.384,4.997,2.384c1.662,0,3.144-0.72,3.954-2.204
		c0.359-0.588,0.764-1.709,0.764-3.466V16.602c0-1.931-0.363-3.466-1.31-4.539c-0.894-0.946-2.151-1.531-3.549-1.531
		c-2.292,0-3.908,1.393-4.856,2.205V10.98h-5.303v34.346H325.707z M325.757,17.188c0-0.678,0-2.654,2.201-2.654
		c1.44,0,2.116,0.942,2.116,2.519v10.658c0,0.893-0.229,2.384-2.159,2.384c-1.624,0-2.159-1.037-2.159-2.562V17.188z"/>
</g>
<polygon fill="#FFFFFF" points="219.558,3.494 216.88,2.214 218.114,4.936 216.88,7.655 219.558,6.374 222.229,7.655 220.994,4.937 
	222.229,2.214 "/>
</svg>
