<?xml version="1.0" encoding="utf-8"?>
<!-- Generator: Adobe Illustrator 17.0.0, SVG Export Plug-In . SVG Version: 6.00 Build 0)  -->
<!DOCTYPE svg PUBLIC "-//W3C//DTD SVG 1.1//EN" "http://www.w3.org/Graphics/SVG/1.1/DTD/svg11.dtd">
<svg version="1.1" id="Layer_1" xmlns="http://www.w3.org/2000/svg" xmlns:xlink="http://www.w3.org/1999/xlink" x="0px" y="0px"
	 width="45px" height="45px" viewBox="0 0 45 45" enable-background="new 0 0 45 45" xml:space="preserve">
<circle fill="#002B5C" cx="22.5" cy="22.5" r="22.375"/>
<path fill="#FEC013" d="M30.236,32.159c-0.601,0.286-1.751,0.536-2.609,0.558c-2.588,0.069-3.09-1.818-3.112-3.188V19.465h6.493
	V14.57h-6.469V6.333c0,0-4.659,0-4.737,0c-0.077,0-0.214,0.069-0.232,0.242c-0.277,2.521-1.457,6.945-6.362,8.713v4.177h3.272V30.03
	c0,3.617,2.669,8.755,9.712,8.635c2.376-0.041,5.015-1.036,5.599-1.894L30.236,32.159z"/>
</svg>
