<?xml version="1.0" encoding="utf-8"?>
<!-- Generator: Adobe Illustrator 17.0.0, SVG Export Plug-In . SVG Version: 6.00 Build 0)  -->
<!DOCTYPE svg PUBLIC "-//W3C//DTD SVG 1.1//EN" "http://www.w3.org/Graphics/SVG/1.1/DTD/svg11.dtd">
<svg version="1.1" id="Layer_1" xmlns="http://www.w3.org/2000/svg" xmlns:xlink="http://www.w3.org/1999/xlink" x="0px" y="0px"
	 width="50px" height="50px" viewBox="0 0 50 50" enable-background="new 0 0 50 50" xml:space="preserve">
<path fill="#5FA9DD" d="M48.643,9.475c-1.711,0.759-3.551,1.272-5.481,1.503c1.97-1.181,3.484-3.051,4.196-5.28
	c-1.844,1.094-3.886,1.888-6.06,2.316C39.557,6.159,37.077,5,34.332,5c-5.271,0-9.544,4.273-9.544,9.543
	c0,0.748,0.084,1.476,0.247,2.175c-7.931-0.398-14.964-4.197-19.671-9.971c-0.821,1.41-1.292,3.049-1.292,4.798
	c0,3.311,1.685,6.232,4.246,7.943c-1.564-0.05-3.036-0.479-4.323-1.194c-0.001,0.04-0.001,0.08-0.001,0.12
	c0,4.624,3.29,8.481,7.656,9.358c-0.801,0.218-1.644,0.335-2.514,0.335c-0.615,0-1.213-0.06-1.796-0.171
	c1.214,3.791,4.739,6.551,8.915,6.628c-3.266,2.56-7.381,4.085-11.852,4.085c-0.77,0-1.53-0.045-2.277-0.133
	c4.223,2.708,9.24,4.288,14.629,4.288c17.554,0,27.153-14.542,27.153-27.153c0-0.414-0.009-0.825-0.028-1.235
	C45.746,13.07,47.364,11.389,48.643,9.475z"/>
<path id="Blue_1_" fill="#3D5B9A" d="M46.076,47.318c1.418,0,2.567-1.15,2.567-2.568V3.368c0-1.418-1.149-2.567-2.567-2.567H4.694
	c-1.418,0-2.567,1.149-2.567,2.567V44.75c0,1.418,1.149,2.568,2.567,2.568H46.076z"/>
<path id="f" fill="#FFFFFF" d="M34.222,47.318V29.304h6.046l0.905-7.02h-6.952v-4.482c0-2.033,0.564-3.418,3.479-3.418l3.717-0.002
	V8.103c-0.643-0.086-2.85-0.277-5.417-0.277c-5.36,0-9.029,3.272-9.029,9.28v5.177h-6.062v7.02h6.062v18.014H34.222z"/>
<rect x="2.127" y="0.801" fill="#35465D" width="46.517" height="46.517"/>
<path fill="#FFFFFF" d="M32.711,31.827c-0.539,0.257-1.571,0.481-2.341,0.501c-2.322,0.062-2.772-1.631-2.792-2.861v-9.031h5.826
	v-4.392h-5.805V8.653c0,0-4.181,0-4.25,0c-0.069,0-0.192,0.062-0.209,0.217c-0.248,2.262-1.308,6.232-5.708,7.818v3.748h2.936v9.48
	c0,3.245,2.395,7.856,8.715,7.748c2.132-0.037,4.5-0.93,5.024-1.699L32.711,31.827z"/>
</svg>
