<?xml version="1.0" encoding="utf-8"?>
<!-- Generator: Adobe Illustrator 17.0.0, SVG Export Plug-In . SVG Version: 6.00 Build 0)  -->
<!DOCTYPE svg PUBLIC "-//W3C//DTD SVG 1.1//EN" "http://www.w3.org/Graphics/SVG/1.1/DTD/svg11.dtd">
<svg version="1.1" id="Layer_1" xmlns="http://www.w3.org/2000/svg" xmlns:xlink="http://www.w3.org/1999/xlink" x="0px" y="0px"
	 width="45px" height="45px" viewBox="0 0 45 45" enable-background="new 0 0 45 45" xml:space="preserve">
<circle fill="#002B5C" cx="22.5" cy="22.5" r="22.375"/>
<path fill="#FEC013" d="M39.639,12.489c-1.188,0.527-2.464,0.883-3.803,1.043c1.367-0.82,2.417-2.117,2.912-3.664
	c-1.279,0.759-2.697,1.31-4.205,1.607c-1.208-1.287-2.929-2.091-4.834-2.091c-3.657,0-6.622,2.965-6.622,6.622
	c0,0.519,0.059,1.024,0.171,1.509c-5.504-0.276-10.383-2.913-13.649-6.919c-0.57,0.978-0.897,2.116-0.897,3.329
	c0,2.297,1.169,4.324,2.946,5.512c-1.086-0.034-2.107-0.332-2.999-0.828c0,0.028-0.001,0.055-0.001,0.083
	c0,3.209,2.283,5.885,5.312,6.493c-0.556,0.151-1.141,0.232-1.745,0.232c-0.427,0-0.842-0.042-1.246-0.119
	c0.843,2.631,3.288,4.546,6.186,4.599c-2.266,1.776-5.122,2.835-8.224,2.835c-0.535,0-1.062-0.031-1.58-0.092
	c2.931,1.879,6.411,2.975,10.151,2.975c12.181,0,18.841-10.091,18.841-18.842c0-0.287-0.006-0.573-0.019-0.857
	C37.628,14.984,38.751,13.817,39.639,12.489z"/>
</svg>
